<?xml version="1.0" encoding="UTF-8"?>
<svg width="1036.3" height="476.28" fill-rule="evenodd" viewBox="0 0 829.022 381.022" xmlns="http://www.w3.org/2000/svg">
 <path d="m157.569,14.5879c5.368-.9087 10.726-1.9283 16.011-3.2412 4.36-1.0839 8.502-4.88317 12.894-3.93871 7.695,1.65277 15.601,2.20013 23.45,2.75461 5.26.3721 10.06-.61173 15.301-.0179 8.622.9749 17.11,3.5024 25.128,6.8419 6.781,2.8244 13.139,6.2194 19.072,10.185 1.684.6922 3.535.3917 6.095-2.8083 5.436-6.79 7.051-9.7825 11.875-17.48119 4.324-6.90088 18.374-12.17581 19.533,2.44696 .348,4.40743 1.997,8.28173 3.696,12.13463 64.158,19.6814 128.242,16.0556 184.196,37.692 33.49,11.248 63.039,34.4124 93.243,57.5773 26.093,21.694 49.743,44.65 68.326,68.867 14.831,14.806 25.719,27.625 41.866,40.444 10.349,8.217 25.821,16.755 37.621,22.666 28.613,14.333 95.569,37.604 93.078,79.249-5.927,25.184-30.305,44.822-55.273,51.53-6.99,1.878-14.027,1.524-20.717,1.477-5.499-5.935.526-16.186 12.307-22.287 13.204-6.84 28.152-17.065 18.717-30.849-18.675-25.564-51.643-29.803-74.917-40.36-13.917-6.311-24.034-2.619-36.116-5.69-6.729-1.71-15.778-3.451-23.443-3.898-5.321-.311-9.094-2.565-14.08-3.447-17.231.898-19.193,9.516-32.206,18.515-15.075,10.423-36.317,17.517-50.754,19.81-16.406,1.093-32.551,1.823-48.762,1.546-7.917-.136-15.848-.512-23.835-1.202-9.137-.791-18.218-1.216-27.277-2.746-7.992-1.35-15.965-3.733-23.939-5.531-3.268-.735-7.358-.409-10.652-1.37-2.907-.848-5.02-2.992-7.887-3.583-6.897-4.198-8.8,4.574-15.434,2.889-1.157-.603-3.182-1.962-5.454-3.82-1.136-.929-3.254-1.852-4.436-2.998s-1.432-2.522-2.505-3.823c-2.939-3.561-5.576-5.729-5.534-10.614 .057-6.611 9.553-18.68 14.625-27.458 1.36-1.966-.231-5.754-5.203-8.343-4.543-1.288-2.374,6.2-6.917,8.797-22.06,32.206-34.19,29.875-47.672,31.581-2.818,3.415-5.887,7.257-8.878,10.26s-6.892,4.837-9.403,7.545c-4.033,4.347-6.559,8.507-10.212,11.711-3.881,3.402-8.858,5.243-13.015,7.514-9.696,5.297-19.308,8.527-31.52,7.799-1.447-.461-3.345-.073-4.728.539-2.245.958-4.227,1.153-6.613.745-1.635.73-4.462-1.461-6.13-2.18-3.247,1.12-5.333-.665-8.312-.284-9.089,1.118-18.947-2.932-27.309-5.971-1.931-2.494-2.898-4.109-2.278-7.33-1.722.314-3.492.277-5.223.073-4.784-.707-10.186-2.173-15.356-4.309-5.918,1.848-14.733,1.114-17.157,9.012-2.792-1.51-3.951-4.131-4.37-6.182-2.4,2.028-3.386,3.674-4.172,7.031-1.501-1.808-2.795-4.688-3.602-7.484-2.241,1.664-2.875,3.093-3.555,4.978-1.005-.511-2.919-3.835-5.712-5.613-2.039-1.297-4.763-.785-6.733-1.989-2.532-1.547-3.929-4.856-5.642-7.094-1.572,6.563-5.912,10.99-15.211,8.446-2.36-.645-4.349-3.196-4.668-5.595-.845-6.373-10.554-2.089-13.6786,1.929-.8888,1.143-3.5658,2.575-3.6853,3.589-1.5774,13.353-14.1301,3.231-23.1108,1.024-.2006.88-.3817,1.77-.5362,2.672-.2699-.968-.5362-1.948-.7919-2.942-2.5124-.39-4.6555.034-6.0652,2.057-6.3725,9.12-17.7057-.888-23.7834-4.524-2.8746,4.57-7.3366,4.869-12.1429,5.627-19.14215,2.996-22.30084-30.379-10.79-40.42 .4155-3.945 3.9541-7.388 8.709-10.14 0-6.798 1.5572-5.727-2.7112-6.744-7.3632-1.757-6.605-14.702-10.9196-19.933-3.36111-4.082-.8203-5.989-4.38737-9.829 .37287-3.493-.87889-4.582-3.29008-7.001 3.98964-3.615-4.19205-11.629-4.60752-13.199 1.40978-4.844.03374-8.402 1.48612-12.277 3.19243-8.575 4.92358-12.127 12.93655-17.417-1.1026.203-.7013-.309-.8132-1.398 3.0842-13.483-1.1842-19.994 17.8496-21.037-2.3207-.943-4.3395-2.251-6.1203-3.861-1.5004-1.356-.4546-3.213-1.7383-5.221-1.4559-2.276-5.2041-4.748-6.2517-6.907-2.5798-5.308-4.4282-9.889-6.3742-15.631-3.97539-5.267-5.29106-12.518-5.44376-17.481-.29119-9.4394-.1598-18.0746 7.89226-24.3047 17.0452-13.1891 34.5148-5.1309 46.3914,2.8663 1.257.8471 4.5365,1.6545 9.4547-1.6836l.0533-.0685c6.7701-8.388 11.5357-16.8078 18.2706-24.2183 4.5715-5.0317 11.301-7.8132 17.076-12.0596 4.492-3.3019 7.831-8.2156 12.846-11.0811 5.536-3.1624 11.907-7.3123 19.326-12.496 6.148-4.2965 13.043-9.7092 20.728-11.0096z" fill="#672a21"/>
 <path d="m294.624,195.883c-.711-3.681-1.791-4.616-3.224-2.76-.796.965-1.79,1.844-1.79,3.724 0,2.963-.692,5.751-1.73,8.017-1.167,2.518-3.94,1.802-7.235,1.746 1.323,1.119 3.125,2.954 4.845,5.195 2.083-.946 4.32-.907 6.664.757-.041-.771.008-1.38.171-1.742 1.743-3.51 1.225-10.123 2.298-14.937h.001z" fill="#fff"/>
 <path d="m147.612,269.636c0,7.599-1.639-1.542-2.295-2.203s-.328,2.863-.984,3.524c-1.421,1.432-1.094,1.432-1.094-1.432 0-2.312-1.639-1.762-1.639.661 0,3.525-.438.441-.984-.661-1.203-2.423-2.733,7.159-2.733.882 0-1.653-1.64,2.422-1.64,2.642s-.328-3.964-.547-3.413c-1.749,3.524-2.623,5.066-2.623-.221 0-.55-.984.661-.984,1.102 0,.66-.547,8.48-1.312,4.625-.11-.991.109-3.854-.438-1.982-1.858,5.727-.765-1.762-1.53-2.533-.109-.11-3.17,5.948-3.17,2.313 0-.992.218-2.203.218-3.304 0-3.745.109-1.432-1.202-.111-.438.441.765-7.929-.328-4.405-.438,1.542.109,5.176-1.422,2.093-.109-.331-2.077-5.617-2.077-4.626 0,.771-.109,5.397-.218,5.176-.984-1.982-2.515-9.361-3.717-4.405-1.203,5.066-2.405-2.093-2.405-4.075 0-3.304-2.405,3.745-2.952,3.745-.219,0-.328-2.864-.328-3.745 0,0-1.749,3.524-2.405,4.185-1.093,1.101.109-4.956.109-5.397 0-.33-4.591,7.159-3.717,4.406 .766-2.533 1.968-4.406 1.968-7.159 0-2.974-1.64,1.322-1.858,2.203-.11.55-1.859,2.863-1.531.991 1.093-5.837.984-3.524-.547-2.753-2.405,1.211-.983.881-.983-2.533-1.531,1.211-3.2801,6.718-3.2801.44 0-1.542.7652-2.203.7652-3.524 0-.661-.4373,0-.5465.22-.2187.551-1.4213,3.084-.8746.661 .1094-.441.1094-3.745 0-3.855-.2188-.22-1.5305,3.965-1.5305,3.304l.2185-7.269c.1094-3.744-2.1864,6.939-2.1864,1.102 0-.441.5467-5.838.1094-5.397-.5467.551-2.7331,3.855-2.7331,3.635 0-2.534.9838-7.159-1.4211-4.736-.328.33-2.7331,5.286-2.7331,3.634 0-.661.7723-3.366.3279-4.075-3.9356-6.277-2.0772-10.793-1.0932-14.758 0-1.872 1.0039-4.179 1.5305-5.837 .3475-1.095.9839-3.524.9839-4.956-4.3089,3.525-7.243,15.419-7.4348,18.943-2.0951-2.886.3108-16.423 4.5925-22.577-5.5619,4.222-9.5959,10.599-8.7455,21.035-3.1249-6.033-2.6313-12.438 4.153-22.026-4.8277,3.744-9.3091,8.884-13.5545,14.978 2.2461-7.799 7.1892-15.806 13.2278-23.899-4.2187,3.514-8.3166,7.974-12.2441,14.427 1.202-4.442 3.1338-8.443 5.7936-12.004-4.3288,2.833-7.3703,7.478-9.9484,12.665 1.3672-4.937 3.5529-9.599 7.5425-13.657-6.0936,3.684-9.9785,9.278-13.993,14.758 2.935-8.926 7.9899-17.14 19.6783-23.128-6.7826,1.708-13.8421,6.304-21.2088,15.419 .4279-2.53 1.9318-4.921 4.2648-7.159-3.789,1.563-7.5798,5.277-11.3705,9.362 2.3952-3.479 4.7087-7.009 8.4178-9.692-3.3576,1.005-6.3298,3.565-9.4015,5.727 6.8518-8.282 13.7019-13.011 20.5519-15.309-4.6963-1.213-11.1646,1.639-21.5355,13.436 1.7364-4.038 3.7907-8.075 8.6362-12.114-4.6573,1.513-7.9172,5-11.2605,8.37 2.9012-6.182 8.1-10.666 14.8684-13.987-5.4598-.154-10.9196,3.707-16.3794,9.02 3.0096-4.45 6.0848-8.859 11.177-11.996-1.7595-2.022-3.757-2.606-6.2783-.024-1.3849.348-.8647.174-1.3849.697 0,0-1.0369,1.045-1.0369,1.219-.174.523-.8647,2.092-1.2109,2.44s-.5203,1.569-.8647,1.917c-.174.175-1.0387,2.614-1.0387,3.137 0,1.046.1722,2.614.1722,3.311 .071-4.124 1.5181-13.397-1.5554-5.75l-2.768,5.402c.2166-5.107-.2078-9.999 5.8806-17.079-5.0355,2.574-8.3238,8.217-11.763,13.245 1.4506-4.358 3.3771-8.813 8.6504-13.942-4.5223,3.497-8.8333,7.413-12.9756,11.676 1.9389-4.439 4.2098-8.638 8.8227-11.153-5.4687,2.149-8.9328,6.657-12.1092,11.502 1.3938-5.669 3.0273-11.313 12.1092-16.207-4.8846-.881-10.5965-.355-16.2604.697 4.0553-1.879 8.4693-3.038 13.6663-2.614-5.0159-1.502-10.0336-.983-15.0495-.175 4.5312-1.882 9.3003-3.427 15.742-2.614-4.5561-2.177-9.1103-2.254-13.6664-1.742 4.7283-1.408 9.4565-1.976 14.1848-.698-4.6768-2.7-8.5421-4.022-12.4554-4.038 4.6714-.578 10.6266,1.627 15.298,2.589 9.865,1.546 19.1581,4.242 27.8796,8.089-5.3675-.79-9.785-.622-13.2509.506 6.4186.336 12.6454,1.44 18.6823,3.311l-19.3197,2.351 3.4268,3.165 9.2825-1.295-4.9981,3.309 13.851-.719-7.8532,3.884 9.5666-1.007 6.7126.432c5.855,1.438 10.282,4.747 13.852,8.344 4.3215,4.354 4.9555,7.278 7.9455,8.844-1.013,3.382-3.403,5.1-3.403,10.683 0,2.789 4.844,7.842 4.844,10.805 0,1.568 3.805,2.265 4.843,2.265 6.055,0 1.73,3.312 1.73,7.146 0,1.742 2.941,1.22 4.325,1.22 2.249,0 5.362,4.356 5.881,4.356 .173,0 7.612,4.009 3.287,4.009-1.384,0-1.038,4.705-1.038,6.448 0,6.796 8.477,2.962 8.477-1.394 0-1.395 1.038-5.403-1.557-5.403-2.768,0-1.211-4.182 1.211-4.182 .346,0-6.228,1.045-8.477-3.66-.519-1.046-3.459-2.091 1.384-2.091 1.211,0 10.206-1.395 10.206-1.395 0-1.394-8.995-.348-10.552-.348-6.573,0 2.076-4.008 3.287-4.008 2.422,0 7.957-.698 2.249-.698-1.73,0-5.882-.174-6.574,1.22-2.94,5.926-7.092-1.22-3.806-2.265 2.249-.697-1.902-15.336-3.113-16.556-1.292-1.302-1.495-3.074-2.06-4.539 3.523.787 6.187,3.46 6.187,7.526 0,4.748 7.711,4.172 7.711,5.611 1.71,3.895 9.552,4.63 11.376,8.304 2.189,4.41 7.477,1.47 11.854,3.124 3.057,1.204 1.926,4.495 4.548,3.174 1.428-.291 1.862.991 1.92,2.215 4.16,1.027 9.513,5.058 3.928,8.758-1.228.813-2.371,9.002-2.371,11.023 0,2.572-7.478,7.533-4.377,13.78 1.824,3.858 8.571,9.92 12.401,9.92l-.208-4.552 .073.139c.964,1.796-.027-4.225 1.58-5.888 2.204-2.28 7.108-1.45 7.931-1.043 10.978,5.436 27.623,7.913 30.546-2.356 1.703-5.981 2.006-8.295 2.661-8.214 9.842,9.083 25.547,14.197 36.768,7.542 1.987.407 10.458-9.687 16.034-14.804-8.291,28.071-38.999,35.399-49.952,11.347 3.352,18.405 12.87,28.926 31.4,27.927 2.037.234 2.465,3.418.662,6.199l-.082.025c-1.173.369-2.337.777-3.474,1.247-1.117.463-2.267.893-3.28,1.558-.806.528-1.417,1.309-2.111,1.98-1.398,1.351-2.596,2.939-4.166,4.082-1.033.753-2.53.703-3.519,1.513-3.251,2.665-6.035,5.86-9.052,8.792 2.402-1.243 4.717-2.676 7.207-3.73 1.138-.479 2.502-.289 3.606-.842 1.314-.66 2.057-2.368 3.484-2.715 1.913-.466 3.94.72 5.887.434 1.562-.231 2.905-1.25 4.325-1.944 .649-.319 1.349-.762 2.071-.8 1.378-.073 2.509.68 3.876.483 1.55-.222 2.766-1.533 4.269-1.971 1.24-.363 2.732.242 3.854-.404 2.085-1.199 3.35-3.511 5.33-4.88 3.353-2.316 7.055-4.074 10.582-6.114-3.121-.052-6.244-.266-9.363-.159-3.577.125-7.179.231-10.704.857-.34.061-.68.129-1.017.204-2.749-1.474-2.835-4.93-1.865-5.982 15.005-16.398 19.418-29.412 15.542-39.779 .565-.262.997-.298 1.252-.041-.169.461.323-.647 1.253-2.671 2.493-1.958 5.59-5.301 6.821-6.755 3.737-4.418.416-4.599.663-6.198 .318-2.055.995-2.55 1.345-2.765 2.235-1.377 7.77,3.863 9.125,1.839 2.819-4.212 1.635-9.311-.773-13.774 .482-.007.9.236 1.234.785 .491.807 1.493,1.371 2.84,3.371 .355.529-.335,2.435.099,3.27 .297.571 1.719.082 1.994.524 .426.684-.182,4.142.254,4.867 .609,1.015 1.893-.603 2.54.337 .355.516-.017,1.868.321,2.428 .264.436 1.243.075 1.492.531 .204.373-.076,1.447.328,1.681 .773.446 2.351-.03 2.672.726 .265.623-.342,1.774-.2,2.461 .085.411.954.347 1.005.769 .084.699-1.476,1.489-1.457,2.188 .026,1.004 1.633,1.155 2.052,2.041 .326.688-.508,2.142-.505,2.727 .003.688-2.242,2.02-2.247,2.7-.006,1.063 1.608-.193 2.062.709 .183.362-1.989,1.5-1.979,2.154 .009.584 3.034-.095 3.211.525 .185.648-3.411,1.697-1.27,3.08-.225,2.237-1.725.74-3.489,2.513-.831.835-1.021,2.752-2.152,3.721-.835.715-2.715.231-3.584,1.095-.808.804-.311,2.828-1.195,3.674-1.375,1.315-2.591,2.747-4.125,4.069-.923.797-2.787.58-3.725,1.377-.968.823-.843,2.664-1.806,3.472-.731.614-2.478,1.724-3.21,2.307-.396.317.286,1.626-.208,2.163s-2.164.304-2.543.594c-1.049.805-2.896.857-3.841,1.522-1.557,1.095-2.122,2.325-3.209,3.159-2.483,1.9-4.499,2.805-4.51,2.951-.015.199 2.934-.318 7.488-3.851 .671-.52 1.848.292 2.989-.057 .888-.27 1.752-1.681 2.344-2.154 1.153-.915 2.886-.586 5.128-2.416 .738-.603.594-1.716 1.241-2.286 1.069-.943 3.125-.996 4.113-2.098 .625-.696.579-2.63.478-3.185-.289-1.574 2.199.326 3.586-.936 .474-.431 2.341-1.179 2.9-2.271s-.191-2.525 1.065-3.226c1.596-.89 2.985-3.467 4.167-4.91 .919-1.123 1.847-1.291 1.791-1.179-.187,1.982-.427,3.91-.722,5.775-.066.422-1.13,2.535-3.507,4.743-1.08,1.004-2.833,1.555-4.182,2.807-2.108,1.956-4.466,4.623-6.821,6.526-1.641,1.326-3.284,2.971-4.839,4.069-4.299,3.038-7.927,4.716-8.996,5.517 2.286-.701 4.497-1.032 6.587-1.875 1.336-.54 2.288-1.624 3.516-2.338 1.579-.919 3.398-1.506 4.756-2.482 1.138-.818 2.27-2.959 3.206-3.653 2.09-1.552 2.991-1.642 4.388-2.783 2.388-1.948 4.111-2.638 3.986-2.218-2.202,7.394-5.686,13.583-10.848,17.454 .078,2.345-.382,4.742-.497,7.153-.009.208-1.432-.533-1.742-.35s.49,1.288-.006,1.388c-.595.12-1.61-.029-1.706.216-.359.907 2.603,2.601 2.213,3.404-.103.213-1.498-.268-1.709-.059-.272.27.63,1.234.48,1.497-.212.374-1.872.215-2.1.576s.977,1.245.736,1.596c-.288.418-1.46.084-1.766.486s.25,1.546-.071,1.93c-.145.176-.955-.177-1.102-.005s.366.864.216,1.03c-.179.201-1.139.136-1.321.331-.401.43-.031,1.107-.443,1.512-.254.25-1.261.001-1.519.241-.364.342.018,1.168-.35,1.49-.101.09-.838-.084-.94.004-.306.263.021.783-.284,1.032-.16.13-.749.15-.554.579 .128.285-.467.446-.771.571-.473.191-1.158-.013-1.517.234-.638.439-.653,1.116-1.14,1.378-.813.434-.913.155-1.581.586-.619.401-.737,1.115-1.298,1.451-.484.29-1.353.009-1.781.25-.256.147-.093.836-.325.963-.62.343-1.151.626-1.568.844-.947.499-2.265,1.17-3.269,1.892s-1.697,1.503-2.986,1.816c-1.008.247-2.476-.832-3.614-.63-1.132.202-2.516.202-3.751.412-1.302.22-2.566,1.211-3.991,1.363-1.184.127-2.314-.372-3.584-.299-.577.032-1.263.662-1.858.683-.736.025-1.488-.758-2.252-.751-.982.011-1.988.805-3.014.782-1.245-.027-2.026-.882-3.337-.963-1.685-.103-3.923.55-5.717.353-1.505-.163-3.049-.363-4.631-.598-4.959-.735-9.8-2.484-15.978-4.734-1.482-1.655.402-3.057 4.318-5.236 1.883-1.048.444-2.79 5.347-5.84 .887-.553 4.078.42 4.872-.234 4.068-3.349 6.926-7.313 8.182-8.742-8.853,4.306-16.694,8.316-23.382,9.681-6.638,4.334-11.469,1.674-13.569,1.373-2.552-.365-4.897-1.078-7.151-1.994-1.056-.429-1.944-1.504-2.972-2.007-1.165-.569-2.469-.572-3.63-1.191-.993-.53-1.992-1.673-3.006-2.211s-2.045-.469-3.1-.984c-1.099-.537-1.541-1.835-2.789-3.155-.749-.793-2.267-1.401-3.051-2.397-.534-.678-.181-1.699-.727-2.451-.426-.583-1.751-.885-2.181-1.502-.531-.762-.505-1.923-.928-2.796s-1.297-1.46-1.833-2.277c-.521-.794-.919-1.628-1.569-2.336-.39-.426-1.063-.712-1.371-1.186-.522-.803-.688-1.955-1.285-2.653-.465-.543-1.368-.633-1.761-1.218-.433-.646-.521-1.62-.892-2.282-.617-1.104-1.489-1.882-2.158-2.762-2.506-3.298-4.722-5.481-6.383-5.334zm30.22-28.968c1.844,1.858 6.558,4.13 3.791,6.917-.819.826-1.434,1.445-1.947,2.581 0,.103-.102,1.342-.205,1.342-.614,0-2.459-2.065-3.279.413-.615,1.858 2.972,5.471 1.025,6.4-1.537.723-2.869-1.032-3.894,0-.922.929.615,2.478-1.127,3.304-2.255,1.135-6.251-1.445-3.177-3.82 3.894-2.89 1.435-8.465 6.353-10.117 1.538-.516 3.997-1.652 3.177-3.303-.102-.207-.922-1.755-1.025-1.859-.307-.309-.41-1.961.308-1.858zm102.717-11.562c1.967.441 9.292,3.304 10.057,4.956 2.296,4.736-.765,1.432-.765,4.516 0,.66.328,6.938-1.859,4.736-.546-.551-1.639.77-1.639,1.211 0,3.304-2.515,8.59-4.592,10.683-.765.771-3.936,1.542-4.263,3.194-1.203,4.846-6.997,2.643-4.811.44 2.296-2.313.438-3.304.438-6.828 0-4.736 5.028,1.872 6.34.551 .875-.881-3.389-4.295-3.826-4.736-2.077-2.093-1.64-4.075 1.531-1.762 1.749,1.321 3.607,3.084 3.607-.11 0-.11-4.373-6.939-1.858-6.939 1.749,0 .984,4.736 4.154,3.194 1.749-.881 1.749-2.313 1.749-4.295 0-3.965-4.919-2.533-3.826-3.635 .874-.881-.984-2.202-1.093-2.533-.875-1.762.656-1.872.656-2.643zm14.321,11.014c-2.733-3.304 4.482-5.287 4.482-1.322 0,3.304-.219,5.947-2.186,7.93-2.952,2.973.983,2.753-1.203,3.854-1.203.551-4.264,4.296-2.842,5.727 .874.881-4.373,2.203-4.811,3.084-.437.991-5.247,6.828-5.247,8.26 0,2.313-14.54,13.105-16.289,13.987-.219.109-4.045,1.102-3.17.22 2.186-2.202 8.308-9.581 10.385-10.573 3.936-1.982 3.061-8.48 7.762-8.48 6.45,0 .109-2.313 1.093-4.405 .328-.771 4.155-5.617 5.138-6.058s4.592.111 4.592-.881c0-1.211-1.093-1.211-1.093-2.533 0-.771 1.968-1.762 2.514-1.872 .328-.11 3.936-6.938.875-6.938zm-116.684,53.283c5.725,1.926 9.542,7.169 15.692,7.169 7.846,0 20.675,1.819 27.885-.535 1.59-.535 9.648-3.638 9.648-4.495 0-1.924-.424.535-2.014,2.141-4.242,4.279-12.935,6.205-18.767,7.169-2.121.321-4.135-.214-5.619,1.283-1.803,1.819-2.439-1.925-2.439-1.925-2.015-.964-4.771,2.354-8.164.642-4.347-2.141-8.588-1.177-12.299-4.922-.742-.75-3.711-2.676-4.029-3.853-.954-3.102.212-2.996.106-2.674zm-3.646-11.884c1.641,1.241 5.951,3.514 6.771,4.341 4.31,4.341 20.315,7.235 28.318,7.235h11.697c2.462,0 7.797-1.239 7.182-.619-4.31,4.342-29.96,4.96-32.217,2.687-3.283-3.307-8.618,2.688-13.543-2.273-3.078-3.102-8.824-6.615-8.208-11.371zm48.527,5.105c-1.584,0-5.544-.344-6.336.454-2.149,2.166-2.715-.569-3.394-1.252-.339-.344-15.385-1.596-18.326-1.596-5.317,0-12.557-6.725-17.195-9.004-1.811-.912-4.073-5.584-.453-4.444 3.281,1.025 5.883,7.864 11.426,7.864 1.584,0 3.733.342 5.543.342 1.131,0 3.507,5.584 6.222,2.849 .453-.456 9.39.569 11.426.798l6.448.569c1.697,0 2.828,3.076 4.639,3.42zm-12.111-11.496c-.897-.453-1.793-1.957-2.69-1.957h-1.195c-.448,0-.896.3-1.195.601-.149.152-.448.452-.747.452-1.046,0-1.345.601-1.345,1.505 0,1.053 3.586.903 4.482.903 .15,0 1.046,0 1.195.15 .299.302.897,1.204 1.495,1.204h.597c.448,0-.149.753.448.753h2.689c.598,0 .15-1.354.15-1.354 0-.15-.448-.753-.448-.753-.15-.301-1.195-.903-1.345-1.054s-1.195-.45-2.091-.45zm-1.943-5.871c.448-.301 1.046-.602 1.196-.903s.896-.752 1.045-.752 .299-.301.449-.452c0,0 .747-.15.896-.15 1.195,0 .448.301.747.903s.149,2.408.149,3.16c0,.301-.149.753-.298.903h-1.046c0,0-.448-.451-.598-.451-.299-.151-.597-.602-.597-.602h-1.345c-.299,0-.747,0-.896-.15-.449-.452-.598-.452-.598-1.205 0-.301.747-.752.896-.301z" fill="#fff"/>
 <path d="m40.5125,274.791c.2628-1.658 2.0472-.869 3.9613-.699 2.4609.218 5.3745.259 8.0556,1.651 5.403,2.803 8.9558,5.874 8.9558.701 0-3.674 6.7684-2.796 9.8489-1.653l5.8274,2.163 3.6558-2.529c2.4898-1.725 3.4916,4.183 5.0567,6.342 1.399,1.93 4.2747,1.923 5.3805,3.769 1.6168,2.699 1.3203,7.06 2.5111,8.26 0,0 .0005,6.431 3.4652,6.431 2.9732,0 2.3696-3.737.2011-7.792-.8982-1.679.7436-3.754-.1947-5.409-.5874-1.035-3.6822-2.64-.6378-6.609-1.1499-.844-4.5513,2.193-4.6574,1.989-6.1988-11.868 4.5224-14.153 13.363-11.082 4.318,1.5 6.305,5.202 8.339,5.202 11.826,0 12.623,3.719 14.775,11.085 .602,2.062.824,5.42 2.004,7.838 .48.988-.507,2.027-.386,3.082 .394,3.465-.988,7.084-2.494,9.833-.904,1.651-1.152,3.107-3.049,3.701-1.685.529-5.755.196-7.749-.448 0,0-4.327-2.532-1.277-6.612 .897-1.202-.145-2.515-1.837-2.061-6.092,1.633-4.825.14-6.239.127-3.622-.029-5.403,1.399-6.514.279-1.8232-1.837-4.3793,8.65-8.7537,7.901-.5154-.088.329,3.939-1.6193,5.931-1.5151,1.551-4.9507,1.744-10.6003-1.338l-4.3767-2.389c-.7369-.371-2.0384-.666-3.5493-.827 1.2783-4.584 3.0823-8.947 5.0283-13.354 2.4928-5.64 1.0777-10.493-2.4218-10.457-3.9204.041-6.1079,5.536-6.4009,9.41-.4012,5.332.2326,9.976 1.2003,14.267-3.1427.004-6.3618.617-7.1696,2.247-2.1804,4.393-8.0361,3.557-12.6312,1.014-2.3011-1.274-4.3856-2.916-6.1399-4.198 1.0831-4.926 2.9439-9.497 4.9893-14.126 2.152-4.869.9304-9.06-2.0898-9.027-3.386.035-5.2751,4.779-5.5273,8.126-.4066,5.403.4173,9.988 1.4933,14.224-1.8963-1.287-3.2901-1.832-3.9844-.423-2.0578,4.174-5.3923,4.363-9.0375,4.912s-7.2406,1.467-9.8205-.987c-5.8486-5.565-6.4221-17.637-5.5805-24.318 .657-5.221 2.7077-8.544 6.1966-11.138 1.8271-1.358 2.9386-3.052 4.8739-3.563 5.5716-1.476 10.7864.731 15.5555.554zm32.9203,18.887c.2291-.942.7511-2.271 1.5181-2.198 .6854.073.6729,1.216.1829,2.658-.8363,1.336-1.3423,2.889-1.7507,4.504-.1562-1.481-.2131-3.053.0497-4.964zm-28.0855-1.214c.1971-.814.6481-1.961 1.3104-1.898 .5912.064.5806,1.052.1562,2.295-.7209,1.154-1.1576,2.493-1.511,3.889-.1331-1.279-.1829-2.637.0444-4.286zm-27.7854,2.892c.1846-2.47 1.5802-5.971 4.0784-5.997 2.2283-.024 3.1303,3.069 1.5429,6.663-1.7098,3.867-3.2439,7.679-3.9683,11.88-1.0298-3.701-2.0206-7.673-1.653-12.546zm110.9751-2.508c-.175-2.32-1.485-5.607-3.83-5.632-2.094-.022-2.941,2.883-1.449,6.257 1.604,3.633 3.045,7.212 3.726,11.158 .967-3.476 1.898-7.205 1.553-11.783zm-107.6318.245c.1456-.601.4794-1.447.9677-1.4 .4368.048.4279.776.1154,1.694-.5327.851-.854,1.84-1.115,2.869-.0995-.945-.135-1.946.0319-3.163zm104.4928-2.37c-.139-.561-.45-1.363-.91-1.314-.411.041-.404.728-.107,1.59 .5.796.801,1.728 1.046,2.694 .091-.888.128-1.83-.029-2.97z" fill="#fff"/>
 <path d="m167.42 188.56c3.42 1.93 5.64 5.037 5.64 8.541 0 5.852-6.192 10.599-13.83 10.599s-13.829-4.747-13.829-10.599c0-4.721 4.03-8.722 9.597-10.093-1.822 1.568-2.979 3.9-2.979 6.503 0 4.72 3.799 8.548 8.484 8.548s8.485-3.828 8.485-8.548c0-1.845-0.581-3.554-1.568-4.951z" fill="#fff"/>
 <path d="m248.467,151.863c5.347-2.344 11.063-1.57 13.886,2.277 3.454,4.707 1.274,12.232-4.868,16.805s-13.923,4.464-17.374-.243c-2.268-3.091-2.106-7.399.012-11.287-.038.326-.058.658-.058.994 0,4.72 3.8,8.548 8.485,8.548 4.685,0 8.484-3.828 8.484-8.548s-3.799-8.547-8.484-8.547l-.083.001z" fill="#fff"/>
 <path d="m143.713,204.885c6.775,5.615 10.779,8.309 20.882,7.564 2.581-.63 4.223-2.206 6.335-3.624 1.972-1.028 3.058-1.214 4.197.701 1.268,3.113 2.223,5.281 2.083,9.34-1.475,4.909.596,8.189-.67,8.736-2.588-.311-3.924-3.356-4.007-9.132-.313-1.569-1.306-2.717-3.295-2.175-1.704.346-2.939.535-4.643.881-10.587.957-17.568-1.771-24.401-8.746-2.171-4.125-.682-6.147 3.519-3.545z" fill="#fff"/>
 <path d="m114.134,161.169 2.934-2.443-.543-2.719 1.659-.844-.764-2.088 2.917-.156-1.247-2.663 .661-1.946 3.471-.803-3.527-2.863 1.627-1.261 .296-3.505 2.521.049 .541-3.596 2.106-.052 .569-4.408 1.111-1.214 .939-4.352 1.518-1.088 .633-1.567 .303-2.72 2.3-1.726 2.567,2.002 1.127,2.758-1.327,2.059-2.908-.015-1.746,4.437 2.966,2.661-2.73.624 .55,3.63-1.292.793 2.478,2.511-2.495.799-3.38-.447 2.815,1.968 1.045,2.404 2.064.67 1.889-.242 1.6-3.108 1.919.693 .777-2.829 3.812,1.984 .134-3.387 3.578-.115 1.224.698 .737.873-.495,2.9-1.415,2.555-2.252,1.751 1.398,2.295-1.158,1.465-2.333,2.445-2.059,3.796-2.85.308-1.703.089-1.087,1.227 1.062,1.696 2.542,2.377 .831.548 .013,1.836-1.339,1.369-1.084,1.15 .122,1.264 1.208.86 1.745,1.013 .475,1.989-1.537,1.414-1.65.178-3.6-.177-2.553.522 .568,3.514 .921,4.276 3.189.896 .792,2.672 1.122.13 .504-2.725 2.339-.787 2.331-.312 2.379-2.471 1.862-1.372 2.264-1.088 2.554-.279 1.857-1.056-1.426-1.998-1.907-3.02-1.375-2.365-.781-2.742-.294-3.29 .28-3.941 .969-3.183 1.568-3.159 2.529-2.947 .824-3.35 3.512-.232 .93-4.379 2.078,1.473 1.389.579 1.271-1.062 1.545-1.941 1.208-3.517 1.926,2.593 1.148,3.026 .525,3.092-1.035,4.447-.178,3.665 2.329,1.813 3.138,2.267 2.991,4.175 .203,7.239-1.87,1.478-.407,3.426-.788,6.794 .9,4.891 8.911,8.955 .501,2.075-.86,1.27-1.731-.167-3.142-2.686-4.263-4.476c-1.63-1.906-3.015-4.057-4.89-5.719-1.322-1.171-2.901-2.102-4.57-2.664-1.79-.602-3.727-.875-5.611-.763-2.11.126-4.254.572-6.173,1.464-2.713,1.261-5.556,2.642-7.527,4.904l-2.752,3.159-.518,2.271-2.182,1.239-.772,3.761-1.288.922-2.139-1.025-2.072-1.827-1.657-3.622-1.907-.066-1.65-1.148 .142-2.706-1.514-2.922-2.394-1.134-4.702-.006-1.813-3.069 1.083-2.183-3.157-3.087-2.321-4.481 5.459-.952-1.906-2.384 1.372-1.57 3.552-1.08-5.156-1.884-.68-2.347-3.267-1.608zm47.465-6.321c4.884-.718 6.304,7.541 10.552,12.024-3.266,5.692-1.023,10.689 0,16.382-8.438-5.141-11.29-7.866-15.223-14.29-1.557-8.54-1.153-12.839 4.671-14.116z" fill="#fff"/>
 <path d="m171.587,82.5417c.656.6618 9.854,1.9855 10.839,2.3164 4.927,1.6546 16.424.3309 22.008.3309 3.942,0 4.927-.3309 4.927,3.9709 0,6.2874-19.708,2.9783-25.621,2.9783-16.766,0-24.711-22.2468-12.153-9.5965z" fill="#fff"/>
 <path d="m176.842,105.375c6.57.992 7.555,6.287 18.066,6.287 4.927,0 13.546-1.498 19.38-.331 7.508,1.502 13.139.33 4.27-5.625-6.956-4.673-25.949,1.323-31.533-4.302-4.927-4.964-12.482-10.9204-21.023-10.9204-9.854,0 5.256,17.5384 1.314,22.1714-3.627,4.263-10.357,7.773-14.124,11.913-3.613,3.97-3.613,14.891 1.642,9.596 2.628-2.647 5.913-9.265 11.168-9.265 3.614,0 .329,13.236 3.285,13.236 .657,0 2.628,4.964 3.942,3.64 1.971-1.985-.329-10.589.985-11.913s2.3-8.273 2.957-8.934c.328-.331 3.613,4.632 6.569,4.632s8.541,8.604 10.511,10.59c2.628,2.647 3.614-5.295 1.643-7.28-5.913-5.957-20.037-13.899-19.052-23.495z" fill="#fff"/>
 <path d="m214.945,141.444c-2.628-1.323-2.956-2.978-4.598-4.633-1.314-1.323-1.971-8.934-4.928-8.934-.985,0-6.898-3.64-7.883-4.633-1.642-1.655-12.811-5.956-12.811-8.273 0-.662-1.642-1.985-1.642-2.316s2.299.662 2.628.993c.985.992 3.613,1.323 4.599,2.316 .657.662 3.284,1.324 3.941,1.985 .986.993.657,1.655 3.613,1.655 1.643,0 3.285.331 4.599.331 1.971,0 6.57,1.985 7.227,2.647s4.27,2.648 4.27,2.978c0,2.648 1.971,3.64 1.971,7.281 0,.661 1.642,8.272-.986,8.603z" fill="#fff"/>
 <path d="m225.785,111.993 2.299,1.324c-2.628-.331-4.927-3.971-2.956-5.957 1.971-1.985 6.241.331 8.869-.993 2.299-.992-3.613-9.5961-6.241-9.5961s-9.526-4.3018-6.241-7.611c1.642-1.6545-.329-2.3164 3.941-2.3164 2.957,0 8.212,1.3237 8.212,3.971 0,.6618 3.285,2.3164 3.285,2.3164 .985.9927 1.971,6.6182 2.628,7.2801s4.927,13.567 7.226,8.604c2.956-6.288 3.285,2.647 3.285,5.956 0,4.633-10.511,7.942-12.482,5.957-.328-.331-2.956-1.324-2.956-1.986 0-2.647-1.971-2.978-3.942-3.971-.985-.331-4.927-2.978-4.927-2.978z" fill="#fff"/>
 <path d="m253.098,190.731c-1.95-.984-7.696-10.395-5.308-11.59 1.215-.609 1.828-.656 2.934-.957 3.316-.902 6.763-1.394 9.85-4.51 5.417-5.467 5.201-12.028 5.201-20.994 0-3.827-.968-5.638 4.008-5.904 12.243-.656 1.192,22.743-1.95,25.913-3.358,3.39-6.393,7.435-10.401,9.404-2.377,1.167.366,3.721 1.006,5.75 .497,1.578-2.205,4.48-5.34,2.888z" fill="#fff"/>
 <path d="m20.717,179.272c-12.59035,7.996-12.59035,8.548-16.14853,15.992-.54687,1.103.27343,3.033-1.91581,5.239-.27343.275 3.55819,2.205 3.01132,2.205-2.18924,0-1.91581,1.379-1.91581,3.86s2.18924,0 1.91581.276-4.92713,3.86-1.91581,3.309c2.46267-.276 2.73611,4.687 2.46267,4.687-1.64237.827 3.83166,8.272 2.46268,8.272s3.83158,1.378 2.46448,1.378c-1.91584,0-.5487,3.584-.5487,3.584 2.1893,0 2.1893,0 .2735.827-.8203.276.822.828 1.0955.828 2.1892.551.8203,2.481.8203,6.065 0,1.103 3.8316,4.688 3.5582,5.239-.5469,1.103 3.0113,7.72 3.0113,10.202 0,.551.2734,1.93.8203,1.93 1.3689,0 1.6423,2.481 1.6423,2.757 0,1.103 4.9272,2.757 4.9272-.276v-1.93c0-.827-1.0955-.551-1.0955-3.86 0-.276.2734-4.136-1.6424-4.136-2.4627,0 2.1892-2.205 2.1892-2.205 0-.276-1.9158-1.655-2.4626-1.103 0,0 2.7361-1.93 2.7361-2.206 0-.551-3.8299.276-3.8299-1.103 0-3.033 8.4836-23.712-.5486-19.3-.8203.276-3.8316,1.103-4.6519.276-1.6424-1.655-.8221,1.103 1.9158-2.482 2.1892-3.033-1.369.276-.5469-.276 4.9254-3.308 1.0937-9.098-2.191-9.098-.5469,0 .8221-2.206.5486-2.482-1.9158-1.93-3.2847-1.93 0-5.238 .8203-.828-2.7379,0 1.0938-1.103 2.4644-.827-3.283-1.655-.8203-4.136 .8203-.827-2.7379-1.103-.2735-3.584 .8203-.827 2.7361-8.272 3.5582-12.408z" fill="#fff"/>
 <path d="m37.1994,262.169 3.8103-.114 2.6544-.754 3.5316.056 2.4626-.44 3.3132.524 2.4929.186 3.3859,1.118 2.3526.317 2.9403.762 2.0792-.257 3.1764-.002 2.3402-1.203 2.3934-.55 .9322-1.297 2.3543-.749 1.2003-1.215 2.7894-.323 2.2057-.591 3.9197.908 3.7938.927 4.1143,1.604 1.9673.32 1.0003-.668-3.8488-2.313-1.3649-1.826-3.2821-.624-2.4484-1.428-3.785.126-2.888-.467-3.5795,1.354-1.5749.34-1.598,1.437-1.0387.386-1.7223,1.283-1.6725-.037-3.3363.77-2.7166-.969-4.105-.333-3.1196-1.535-4.169-.035-3.0131-.382-3.3274,1.958-.9889.259-1.5323.977-.8683-.405-1.8093.579-1.0369-.647-2.1839.533-1.9513-.331-.7653.92 .5505.743 .8238.468 1.1665.804-.0248-.164z" fill="#fff"/>
 <path d="m71.7514,226.548c-2.0809-.061-4.0021-.43-4.43,1.697 .0053.15-6.4026,4.191-8.1622,3.514-.8771-.264-9.3269,4.618-10.1472,5.708s-.87-.113-1.5234.818c-.3267.466-1.1203,2.157-1.6388,2.179-.1722.007-.7688,2.292-1.1079,2.457-.5114.173-.7671-1.774-1.7276.074-1.44,2.773-11.7666,12.404-12.0542,5.64-.0249-.601-2.5852-3.804-.4794-3.142 5.7865,1.708.902-3.201 4.0909-1.531 1.9459.97 3.219-1.645 4.4104-2.148 1.5287-.668 1.2482-3.216 1.1967-4.418-.0124-.301 3.8352-3.479 4.833-4.425 1.4986-1.42 1.9531-2.946 4.201-3.042 .8629-.038 6.5926-3.748 6.5872-3.898 .1403-.759 3.6488-3.771 4.1992-3.042 1.2801,1.601 4.7815,2.504 5.8184,2.459 1.8999-.081 6.4577,1.228 5.9339,1.1z" fill="#fff"/>
 <path d="m237.61,178.837c-5.256-.662-3.613-13.898-6.57-16.876-1.313-1.324-3.284-4.633-5.912-4.633-.985,0-17.081-8.603-4.27-6.618 1.273.197 3.174-.331 4.421-1.377 2.079-1.744 3.511-3.754 5.761,2.37 .114.309 3.614,4.632 3.942,4.963s1.643-13.567 0-15.222c-1.642-1.654-5.255-7.942-5.255-11.251 0-6.949-4.271-1.985-4.271,2.978 0,3.971 1.314,12.244-3.284,7.611-2.3-2.316-2.628-5.956-2.628-10.589 0-4.963-.357-5.495 2.956-7.28 3.73-2.009 8.541-2.321 10.84,1.324 .249.395-.329,4.963 0,5.294 1.314,1.324 2.628,7.611 3.285,7.611 3.941,0 .328-2.647 2.956-5.294 2.956-2.978.985,1.654 4.27-1.655 1.642-1.654 3.613,3.309 5.584,3.309 3.613,0 .328-12.243 2.299-14.229 .657-.662 7.884,3.971 8.869,4.964 .362.364 2.584,3.079 5.664.637 4.125-3.271 7.636,10.451 5.176,13.923-3.206,4.522-5.982,7.053-11.313,9.059-3.199,1.203-7.127-.441-12.666,1.53-5.599,1.993-9.623,6.684-10.511,11.582-.484,2.668-.985,6.949-.985,9.927 0,3.309 2.299,4.633 1.642,7.942zm-75.067,8.35c1.125,0 2.037.919 2.037,2.051s-.912,2.052-2.037,2.052c-1.124,0-2.036-.919-2.036-2.052s.912-2.051 2.036-2.051zm88.043-33.103c1.124,0 2.036.919 2.036,2.051s-.912,2.052-2.036,2.052-2.036-.919-2.036-2.052 .912-2.051 2.036-2.051z" fill="#fff"/>
 <path d="m257.408,84.2921c-1.977-10.9499-11.388-6.2079 5.057-22.7753 5.75-5.7919 14.373-24.4089 21.765-26.8899 9.035-2.8959 10.677-16.9624 5.339-22.3411-4.928-4.96369 14.783-18.20203 14.783-1.2414 0,7.4465 7.803,15.3079 7.803,25.2371 0,8.2728-1.232,19.8566-4.928,23.5807-9.034,9.1014.821,15.7207.821,16.5479 0,2.896-1.642,9.1016-2.874,10.3428-7.802,7.8601 5.118,12.8521 12.51,12.8521 4.927,0 10.266,2.068 2.874,2.068-11.088,0 2.464,2.069 2.464,2.069 2.464,2.482-9.445,2.896-5.338,2.896 11.498,0-1.233.827-1.233,7.033 0,1.629-3.978,3.208-4.974,5.036-.778,1.427 1.482,5.089.77,6.499-.636,1.259-3.579,1.904-4.27,2.833-2.072,2.789.141,4.612 4.068,5.049 1.273.142-2.245,2.288-2.689,5.044-.397,2.466 2.788,5.421 2.526,7.864-.296,2.769-4.086,4.881-5.476,4.881-.404,0 3.35,1.964 4.057,4.456 .73,2.572-1.577,5.699-2.004,5.887-.761.335.897,1.742.567,4.983-.254,2.494-3.746,5.626-3.59,8.897 .107,2.238 3.901,4.543 3.763,6.753-.121,1.927-4.739,2.902-4.985,4.583-.543,3.697 3.258,7.425 3.834,8.294 3.132,4.722 2.874,5.322 3.386,10.891-3.802-4.6-5.703-5.611-9.333-8.693-5.694-4.834-5.493-10.606-11.449-12.091-1.955-.487-3.687-.901-4-3.837-2.506,3.435-9.281,9.573-5.864,9.573 2.767,0 3.978-1.568 6.054-2.265 .519-.174 1.211-4.706 1.211-.349 0,2.614-.519,7.843-3.633,7.843-.346,0-2.594,1.568-2.594,1.742 0,2.266 5.189-.523 5.362-.523 .206,0 .367.02.492.059l-1.158,2.858c-1.669.947-4.191,2.151-4.869,2.835-1.211,1.219 1.21,2.265-2.249,2.265-.26,0-.495.055-.687.145-3.369-2.291-11.171-7.058-20.208-10.825 4.838,9.746 18.026,20.091 16.38,30.493-.562,1.047-1.071,2.021-1.52,2.859-.851,1.626-1.687,3.259-2.51,4.899-.155.316-.315.671-.48,1.053-1.497,2.459-2.961,5.228-3.523,7.359-.494.682-1.025,1.234-1.602,1.571-5.562,3.841-10.017,9.499-14.828,14.23-3.252,3.112-6.917,4.641-10.71,5.031-13.12-3.773-26.572-16.387-26.238-29.47 .092-3.611 7.47-9.934 1.793-15.653-10.458-10.535-9.843-17.76-9.843-31.607 0-1.505-2.708-3.033-2.988-4.816-2.238-14.249-4.681-19.064-7.47-21.673-5.265-4.924 0,4.515 0,13.847 0,11.438-22.111,9.03-3.287,21.673 8.068,5.418-5.976,13.847-5.976,20.168 0,7.224.655,12.553-2.908,18.341-3.864,6.277-11.676,11.18-15.361,18.582 .162-1.373.354-2.733.728-4.008 6.837-5.546 2.845-13.215-3.766-16.295-1.095-2.072-2.758-2.919-4.949-3.406-3.223-4.487-8.482-3.337-13.083-3.717-2.677-4.799-7.502-4.736-11.121-7.874-1.114-3.207-4.548-3.436-7.287-4.417-.552-7.274-6.534-11.826-13.49-11.953-3.642-.032-6.116.319-8.309-2.661-2.765-3.819-5.777-7.169-9.5055-10.047-5.2568-3.928-10.06-5.675-16.6407-6.098l-2.9172-8.862-1.8235-.563c.2432-1.067 1.8412-5.151 5.8291-8.82 2.3938-2.201 7.7511-3.989 8.3056-5.627 1.1502-3.397-8.7655-2.74-6.5922-5.176 3.8614-4.331 11.0513-3.079 11.5893-6.955 .6441-4.639-15.1635-6.229-13.3471-9.898 .3214-.647 1.5394-.946 3.2599-1.038-4.0607-.478-7.4715-1.011-10.8841-1.011h-2.3188c-2.1254,0 5.0247-1.752 4.2524-1.947-3.4801-.779-5.0248-1.947-8.8919-1.947-.7724,0 3.2865-2.142 3.093-2.142-.7724,0-5.2183-2.142-6.1842-2.921-6.186-4.673-12.1767-7.204-.3871-7.204 5.2183,0-21.4006-5.643-9.0837-4.478 5.7972.548-16.4291-9.113-7.1519-8.373 4.6324.369-18.5508-9.2373-5.7989-6.0365 .8026.2012-5.2751-3.3147-8.3095-4.2837-.554-.1763 6.5713.9736.3853-3.1154-2.7059-1.7524-8.1178-1.9472-2.5124-1.9472 2.8568,0 1.3885-.545-.5682-.8691-1.3512-.2238-3.1782-1.0813-5.1313-.4586s-5.4083,2.4552-7.6401,4.9381c-6.4222,7.1486-7.41647,19.1544-5.4083,31.4384-3.86539.584-3.8281-18.971-3.58485-23.442 .46874-8.5679 4.32875-11.9676 8.92745-15.0871 17.3506-11.7715 37.7586,16.3311 39.1116,17.6941 11.4043,11.489 22.8068,23.171 38.2696,30.96 .3129.158 1.0059.697 1.2585.898 3.609.327 6.7657.566 7.9057.159 3.107-1.11-8.7894-5.785-8.2977-7.938 .6955-3.045 15.5837.508 14.9027-1.426-.797-2.26-18.5419-4.331-21.3852-8.539-1.3903-2.058-.0977-4.233.718-5.973 1.6715-3.567-10.7264-15.1843-13.8123-17.3637 3.6417-2.6387 5.1349-3.9627 13.0005-8.7624 1.2095-1.1108 2.2916-3.0229 3.9906-3.6568 1.3212-.4934 3.2758.3083 4.2813-.5071 .766-.6213.002-2.7871.7657-3.4117 .7341-.6005 2.9984-.3232 3.7224-.9341 1.206-1.0186.859-2.9386 2.003-4.0106 1.032-.9664.061-3.9473 1.013-4.9828 .74-.8051 4.078,1.6723 4.754.8128 1.361-.9047.16-5.6731 1.296-6.6945s4.168,1.7047 5.238.796c.802-.6833.625-4.1695 1.511-4.6775 .532-.3059 1.789.9731 2.519.7585 .795-.805 2.549-3.565 5.014-4.1284 1.479-.3363 3.774,1.8102 4.702.9069 .825-.8049-2.045-6.0459-1.197-6.2927 2.037-.5921 4.341,5.0048 5.464,3.6007 .839-1.0482-4.315-8.8631-3.327-9.3586 1.043-.5241 6.28,8.4105 6.987,7.5609l-2.854-7.6486c.352-.5598 6.912,7.4214 7.921,5.4735 .605-1.168-2.178-7.4858-.935-7.543 1.106-.0519 4.369,6.3017 5.588,6.1174 1.28-.1932-.837-10.0597.437-10.6482 1.899-.8783 1.728,9.6734 5.142,8.7253 .299-.084 1.064-8.6359 2.341-8.6091 .994.0197 2.43,8.5877 3.301,8.5698 .995-.0197.321-8.2889.88-8.5089s2.353,7.6128 2.747,7.0368c1.787-2.6151 1.631-9.3353 1.806-9.1511 .718-.5134 1.782,11.4389 3.101,9.0384 1.238-2.2556 1.858-10.3585 2.879-10.0741 1.266.3524 1.645,10.1295 2.132,10.7413 .615.9391 2.904-15.6334 3.029-12.242 1.011,4.0944 1.061,10.058 2.826,8.5232-.001-1.8513.551-9.9506 1.064-11.4728 2.249,1.2968 1.477,8.4374 3.471,11.3584 .566.8299 1.01-8.4267 2.156-8.5537 .687-.0751 1.849,9.271 2.82,8.8792 .465-.0035 1.119-2.7009 1.863-2.8047 .745-.1037 1.583,2.3862 2.415,2.3075 2.139-.2022 4.249-.1163 4.684,1.3308 1.994,6.6343 4.984-1.4131 6.971-5.9439-.033,6.5521 1.44,9.5517 4.926,4.9547 1.006-.7047 1.946,3.5005 2.774,3.4594s1.546-4.3269 2.108-3.8976c.869.6654 1.349,1.8441 1.405,2.7081 .028.4329.317.0662.31.7137-.005.4848.923,1.2861.799,2.1429-.278,1.9157-.02,3.0426-.126,3.0426-5.127,1.2628-8.462,1.1126-13.725.2773-1.046-.1664-2.031-2.2574-3.497-2.5776-1.884-.4132-4.28.948-5.604.914-1.95-1.1626-3.848-.1305-6.218.2558-1.186.1914-2.49-2.4219-3.868-2.3557s-2.831,2.8119-4.314,3.1428c-1.179.2629-2.261-1.5329-3.608-1.5795-1.73-.059-3.756,1.626-5.479,2.1232-1.372.3989-3.133-.3935-4.889-.0715-1.755.3219-3.507,1.7583-4.86,2.2037-3.836,1.2628-7.588.923-10.961,1.9586s-6.367,3.4505-8.688,4.0443c-4.526,2.5186-8.105,4.2894-13.066,5.6846-2.078,2.8415-4.675,7.3244-7.662,8.53-2.459,2.7971-4.052,3.4662-6.831,3.9197-.868.1414-1.853-1.2811-2.855-1.0425-2.206.5255-4.5,3.1665-5.841,6.317-.747.5294-2.639-.2027-3.6349,1.1795-.332.4606.7969,3.117.2849,3.519-1.2272.9653-4.0636.9478-5.3044,2.0976-.5863.5436.1533,1.5437-.829,2.1116s-3.6883.7044-4.1615,1.2844c-2.4204,2.9677-1.9735,6.0303-.2273,8.4426-.3178.9165 2.0977,5.7519 2.1159,5.6729 16.3263-20.496 44.0143-38.0635 69.2243-44.1622 3.243-.7834 6.295-2.2645 9.39-2.6205 1.406-.1609 2.824.9159 4.27.6225 10.454-2.1179 18.545-3.6758 29.597-3.3127 .973.0304 2.775,1.9175 3.761,1.9318 3.501.0537 2.893-3.5309 7.345.7566 .549.5295 1.636,1.7244 1.532,2.4828-.426,3.0909-14.578.254-18.135.3166-2.845.0519-5.252,2.8351-7.917,1.8066-8.297-3.2036-2.895-3.2036-10.747.4829-3.063,1.4364-6.067-.6081-9.174.2665-1.749.492-1.665,3.4993-3.361,4.3302-1.018.498-3.972-1.414-4.726-.562-1.376,1.5547-1.492,4.6589-3.124,5.8042-1.08.7577-2.979-1.0339-4.175-.4311s-1.692,3.6026-2.998,3.7636c-1.561.1923-2.759-1.7339-4.321-1.9114-5.905-.6698-24.316,9.7632-26.711,14.635-5.702,1.9642-9.407,9.5185-15.227,10.674-.514,4.5126-2.611,1.9616-4.02,6.0466-2.8294-.027-2.5292-.229-2.9855,2.582-6.8048,2.645-.7661,5.68 2.9425,8.396-2.226-4.308-3.1662-4.37 1.856-3.459-2.425-7.579-1.265-5.141 4.192-1.38 .305-4.415-1.121-6.627 3.366-4.427 .344-5.401-.562-6.183 3.679-2.257l-.064-6.4405c6.657,6.7855-.836-2.7499 4.992,1.1466 .876-4.4375.059-4.819 4.568-4.9185 1.743-4.4558 1.92-4.0659 6.584-5.1279 1.239-1.5803 13.862-11.7808 10.308-4.9821l1.982,1.4959c-8.015,4.8958-22.879,15.0925-21.065,26.2645-2.482,3.181-.764,4.931-4.316,7.047l1.734,1.955-1.993,1.53 1.659,1.021-1.743,1.349 1.078,1.24-1.269.814 .159,2.542-6.465,11.373-5.497,4.772-3.017,5.996-4.0384-.385 1.6204,4.24-1.9814,2.223 1.339,1.559-1.5361,2.857 3.3165,3.497 4.925,1.974-4.445,1.736c-.72.833.038,1.606-.25,2.327-.863,2.164-1.122,3.863 1.217,5.316 1.689-.533 3.896-1.067 5.584-1.6l-.608,3.809c.187.893.374,1.786.562,2.68l-1.855,3.205-.504,2.883c1.077,1.119 3.019,2.239 4.096,3.358 1.797,1.009 2.73,2.018 4.527,3.027l10.209-1.434 3.813,11.206 3.63,4.896c2.936,3.478 6.553,6.856 11.753,9.921 4.194,2.607 8.388,3.398 12.582,3.679 3.433-.165 6.867-.62 10.301-1.713 1.809-1.052 2.389.377 3.215,1.31l1.772,6.67c1.584,2.498 3.343,4.356 6.317,1.723l2.343-11.881c.109-1.745.216-3.489.325-5.233-.312-1.608-.623-3.215-.934-4.822l-1.45-4.421 3.522,1.137 2.032.366c2.304-1.145.559-1.737-.869-3.468 3.971-1.508 4.914-3.249 2.983-7.212l-9.189-9.812c-.509-2.659-.844-5.318.038-7.978 1.682-4.406 2.498-8.812 1.413-13.219 4.733,4.436 3.629,7.921 3.859,13.414 2.121-6.927 3.071-11.366.705-18.282l1.026-5.238c-.066-1.481-.131-2.962-.196-4.444l4.566,3.072-2.389-19.558 5.028,7.811c2.499,7.825 4.953,11.629 9.074,18.643 2.421,4.119 1.917,7.156 4.79,10.918 .802.51 1.025.146.671-1.094-1.623-3.815-2.172-7.488-3.714-11.343-1.687-4.216-4.014-7.87-5.795-12.048l-.786-3.532-1.375-2.555 4.668.219 7.652,9.885c3.44,4.308 7.332,5.76 14.486,7.399 2.084.872 2.978,2.947 4.521,4.476 1.054.954 2.867,1.033 3.92,2.971l4.132,12.93c.626,1.684 1.143,2.822 1.768,4.506 1.151.914 2.308,1.719 4.344.993 1.024-.364.034,3.61 1.579,4.431 .404-2.773 1.242-4.889 2.188-7.333 2.13,4.801 3.09,7.408 6.847,11.003 5.496,2.856 9.298,1.789 11.063-4.977 .152-.583.92-1.145 1.109-1.717l4.117-3.587c1.436-1.327 2.872-2.435 4.308-3.762 1.61-2.274 3.329-4.658 4.939-6.933l3.695-3.9c2.592.646 3.161,2.314 1.707,5.002-2.129,4.269-4.367,8.428-6.496,12.697-.153.59-.685,1.219-.458,1.771s.86.864 1.529.84 .975.669 2.06-.968 2.82-5.679 4.23-8.518l2.131-4.65c.848.783 1.677,1.482 2.292,2.435 .39-9.411 3.178-21.972 4.63-32.429-.035-1.427.568-3 1.026-2.997 1.376.009 2.915,2.944 2.461,2.944-1.095,0-2.92,2.206-3.285,3.309 0,.735 3.285,1.839.73,2.942s1.095,2.941 1.095,2.941c1.46,1.471-3.65,2.574-.73,3.31 2.555.735-2.19,5.148-2.19,5.148 0,2.941.365,5.515.365,8.825 0,7.722 8.395-5.516 6.205-6.619 0,0-3.65-6.251-2.19-7.722 2.19-2.206 3.285-3.309 4.015-5.148 1.46-3.309-.73-.735 2.555-2.206 .73-.368-3.65-5.883-3.65-5.883s5.84-.736 3.285-1.839c-6.205-2.942 3.65-.735-2.92-2.942-2.555-.735 5.11-1.103 5.84-1.838 0,0-5.475-1.471-5.475-1.839 0-.735 3.65-1.103 4.38-1.103 2.19-.735-8.03-1.471-3.285-1.471 3.65,0 4.38-1.471 1.095-2.574-2.555-.735 3.285-2.206 1.095-2.206-2.92,0-1.825-.368-.73-1.471 1.825-1.838-1.095-.735-1.095-1.471 0-.367 3.65-1.47 1.095-1.47-2.92,0-2.92-1.839-1.46-1.839 1.825,0-1.825-1.103-1.825-1.103 0-.368 2.19-2.574 2.555-2.942 .365-.367 5.475-2.941 1.825-2.206-2.19.368-2.92,1.839-4.745,1.839l6.824-4.406c-3.944,1.34-8.054,5.208-11.718,5.485-.121-.258-.267-.494-.426-.723 .757-1.211.299-3.762.367-5.16 5.215-6.608 10.245-19.6505 4.588-25.3488-2.19-2.2062 5.11-7.7219-1.46-5.5155-1.825.3675-1.46,3.677-4.015,3.677-5.84,0-1.095-6.251-.365-6.6188 11.315-5.5156 17.155-51.4797 10.585-53.3185-.365-.7352-6.57,10.6643-7.3,11.3995-4.745,4.7813-8.76,7.3552-12.045,8.8255-5.11,2.574-4.38,3.6759-7.665,6.9868-.73.7352-5.84,8.8238-6.57,9.1922-7.3,3.6776 2.19,1.1037-.73,4.0443-3.65,3.6775 1.095,3.3097-2.555,6.9869-2.19,2.2063.73,1.8385 0,2.2063-5.475,2.5739 2.555,2.2062-2.555,7.3541-1.53,1.542-3.446,2.6967-4.751,3.9241zm-28.105,102.8849-1.369-.172c11.469,3.282 20.883,11.574 28.586,19.347 1.883,1.9 4.45,6.046 4.45,9.328 0,8.292-7.189,6.565-12.495,9.156-3.936,1.9-11.469-4.146-13.693-6.392-1.028-1.037-1.199-3.627-2.74-4.664-6.846-4.492-5.99-6.737-5.99-15.719 0-2.765-4.109-4.838-1.37-7.602 2.055-2.072.343-4.663 4.621-3.282zm-20.397-30.67c2.197,0 4.573.3 6.117,1.859 2.257,2.278 4.633,5.035 6.949,7.372 .713.72 2.257,1.139 2.257,2.458 0,3.476-7.84-4.256-8.493-5.275-.832-1.259-2.91-3.956-4.574-3.956-1.128,0-2.019.06-2.672-.599-.594-.6-.832-1.798.416-1.859z" fill="#fff"/>
 <path d="m270.571,31.1121c-.224.5438-.684.9444-1.02,1.4077-6.816,9.4122-11.686,16.3704-16.771,21.5541-6.015,6.1317-6.916,15.8724-.372,25.1903 3.019,4.2988 2.214,9.2028 5.03,13.6517 9.632,15.2161 33.58,23.6661 31.72,44.4291-.398,4.457-1.139,8.886-1.881,13.295-.593,3.528-1.627,8.01-2.45,12.762l-1.889-.895-.66-3.158-2.005-1.582c-.085-2.005-.279-4.119-.364-6.124l-1.148-4.324-2.204-2.475-3.115-.925 1.496-4.448-.522-6.249-1.433-5.229-6.211-9.113-2.905-.852-1.966-6.724-4.199-2.929-1.845-5.523-3.769.241-2.362-5.3567-5.135-3.2238-4.785-7.4828-3.562.7123-6.678-3.764-6.538-2.2844-4.421-2.6129-1.444-3.1387 3.261-4.2155 3.07-4.7605-1.89-4.2276 2.295-6.0459 10.483-3.1266c5.495-3.6437 11.812-4.3913 17.307-8.035 5.795-3.8421 10.631-10.1975 16.635-14.1774 .425-.2826 3.891-4.2159 2.247-.2414z" fill="#fff"/>
 <path d="m65.5778,167.821c-2.6686-2.067-9.563-3.267-11.2036-4.921-.206-.206-4.3909-1.074-1.93-1.074 4.3092,0 8.8244.62 13.1336.62 10.0549,0-21.342-4.755-5.9516-4.755h12.7235c2.049,0-10.7917-4.368-12.2707-4.617-1.3565-.229-7.175-3.879-7.0187-4.478 .2592-.992 3.9204,1.167 6.5801,2.219 3.0859,1.222 6.3476,4.396 9.8365,4.396 4.9236,0-2.6686-3.101-4.5152-3.928-1.6406-.62-15.9941-8.917-10.0549-6.615 2.0632.799 23.707,9.785 12.6277,4.204-5.3355-2.688-7.9083-9.579-11.6014-11.44-.4102-.206 2.6668,1.654 4.1033,2.068 3.0788,1.24 6.9778,5.581 10.0548,6.201 4.3093,1.034-2.8728-2.48-3.6931-3.101-2.6668-2.274-11.4913-9.716-14.3641-10.543-5.5397-1.86 4.5152,1.034 5.9516,1.654 3.4872,1.447 9.6447,4.135 11.9015,6.409 1.2304,1.24 2.0525,1.24.4101-.414-.206-.206-10.671-8.889-6.1558-6.615 5.1296,2.481 10.0815,4.709 1.8466-.207-2.8462-1.699-5.6285-3.867-8.3042-4.878-2.2479-.849-3.5192-5.459-.5203-2.564 2.9137,2.812 24.8434,16.512 28.5239,17.365 .3997.093-3.2828,1.034-6.7717,1.447-4.3092.62.4101.414 2.2567.414 .8221,0-4.1033.413-4.9236,1.24-1.0262,1.034 2.2567,1.654 2.6669,2.067 .6161.621-3.0788.827-3.0788,1.654 0,.414 5.3355,1.447 3.8991,1.447-6.1558,0-.2042,2.067-.8203,2.067-.206,0-4.3092,1.241-3.283,1.241 7.3863,0 2.8728.413.8203,2.067-2.6669,1.861 5.9516.62 3.8991,1.034-.6161,0-9.6146,3.505-6.9761,3.101 8.6167-1.322 8.1018-.082.8203,1.24-1.0103.183 2.4627.207 2.8728.207 0,0-2.0525,1.033-3.0788,1.24-4.3092,1.24.4102-.413-.4101,1.447-.6161,1.447-3.8991,4.134-3.8991,4.134-1.4364,1.034-3.077-1.033-4.1033-1.033z" fill="#fff"/>
 <path d="m311.118,241.544c2.093-1.637 9.398.964 10.71-.444 .164-.176 3.295-.249 1.486-.742-3.165-.862-6.522-1.114-9.687-1.976-7.387-2.011 15.984-.723 4.678-3.801l-9.347-2.545c-1.506-.41 8.21-2.428 9.312-2.394 1.011.032 5.521-2.636 5.445-3.298-.127-1.092-2.955.442-4.977,1.015-2.345.665-4.947,3.345-7.509,2.647-3.618-.985 2.159-2.722 3.569-3.221 1.246-.322 12.325-6.162 7.813-4.934-1.567.427-18.047,5.532-9.547,1.889 4.093-1.755 6.426-8.476 9.259-9.69 .315-.135-2.066,1.202-3.148,1.349-2.341.687-5.485,4.465-7.786,4.5-3.232.223 2.27-2.03 2.913-2.517 2.107-1.853 9.068-7.902 11.232-8.195 4.19-.846-3.383.182-4.478.545-2.656.822-7.352,2.412-9.157,4.348-.984,1.056-1.587.892-.274-.516 .164-.176 8.411-7.199 4.948-5.714-3.928,1.578-7.709,2.928-1.343-.586 2.2-1.215 4.383-2.935 6.414-3.461 1.707-.442 2.938-5.028.547-2.588-2.321,2.37-19.313,12.367-22.072,12.526-.3.017 2.345,1.742 4.881,2.874 3.126,1.513-.328.352-1.685-.017-.603-.165 2.989,1.254 3.538,2.287 .687,1.29-1.764,1.285-2.093,1.637-.492.528 2.208,1.484 2.155,2.352-.027.434-4.013.452-2.957.739 4.522,1.231.017,2.212.469,2.335 .151.041 3.086,2.164 2.333,1.959-5.427-1.478-2.138-.141-.737,2.006 1.84,2.487-4.411-.539-2.93.305 .452.123 6.836,5.603 4.925,4.651-6.246-3.111-5.947-1.706-.683,1.138 .73.395-1.822-.275-2.124-.357 0,0 1.441,1.495 2.182,1.918 3.086,2.164-.392-.467.208,1.601 .298,1.027 1.007,8.382 1.176,10.084 .188,1.897 1.587-7.914 2.341-7.709z" fill="#fff"/>
 <path d="m209.31 13.164c12.233 2.6133 24.669 14.37 33.117 21.391 1.558 1.295 3.934 8.1977 5.576 8.1977 0.41 0 1.645 1.4989 2.45-1.3988 0.631-2.2699 8.631-5.2177 7.4-6.4573-5.13-5.1676-14.98-9.0956-21.957-12.61-3.283-1.6527-3.946-5.8383-8.461-5.8383-3.078 0-14.021-3.4899-18.125-3.2841z" fill="#fff"/>
 <path d="m146.654,276.262c-3.648,4.593-2.006,10.471-8.936,10.471-8.025,0-6.019,22.416 4.194,22.416 2.553,0 6.93,5.327 7.113,5.144 1.276-1.286 7.295-3.858 7.295,0 0,.183 4.587-2.719 6.776-2.719 3.061,0 1.632,3.556 3.304,2.058 2.917-2.619 7.629-3.667 9.354-3.805 1.028-.082 4.668-1.485-.449-2.728-1.03-.25-2.031-1.504-3.238-2.189-.938-.533-2.06-.424-3.036-1.149-.762-.565-1.081-1.783-1.834-2.432s-1.944-.734-2.658-1.435c-.771-.758-.915-1.84-1.607-2.626-.691-.783-1.933-1.271-2.509-2.044-.436-.585-.246-1.46-.603-2.018s-1.26-.801-1.494-1.329c-.402-.903-.863-3.402-2.183-4.765-.724-.748-1.853-1.311-2.526-2.229-.646-.882-.862-2.075-1.511-2.932s-1.731-1.382-2.317-2.132-.379-1.728-.839-2.287c-1.013-1.231-2.39-1.603-2.296-1.27zm-6.382,17.314c-.023-.551.045-1.364.478-1.447 .387-.073.564.557.524,1.422-.245.864-.27,1.794-.235,2.744-.32-.785-.607-1.635-.767-2.719zm-2.298,2.793c-.46-2.167-.144-5.522 1.99-6.18 1.907-.589 3.455,1.833 2.996,5.317-.494,3.751-.852,7.409-.42,11.196-1.81-2.91-3.657-6.064-4.566-10.333z" fill="#fff"/>
 <path d="m353.424,209.414c-7.512,11.825-15.963,25.069-15.963,35.947 0,4.523 1.133,13.344-2.812,18.082-7.893,9.477-13.757,12.904-24.367,20.413 9.093-1.284 13.842-2.79 19.772-5.435 7.157-3.195 15.558-10.053 16.328-10.829 14.554-14.663 28.17-35.474 28.17-61.962 0-8.513 10.329-12.77 10.329-23.176 0-8.939-.144-14.87 2.213-19.531 5.002-9.892 11.754-19.292 12.342-34.39 .586-15.076-2.311-28.305-4.567-29.0627-1.354-.4543-2.476,3.5807-2.476,14.4007 0,8.986-1.409,46.825-12.677,34.528-8.254-9.008-5.307-31.844-.769-47.876 3.88-13.7086 8.237-19.7616 3.117-21.6536-6.302-2.3283-7.823,4.5679-10.028,12.4137-2.251,8.0089-8.474,40.6689-11.608,51.7069-2.419,8.519 8.23-1.59 8.764,1.949 2.315,15.333.186,33.74-4.03,37.988-2.817,2.838.939,21.284.939,26.96s-12.677,38.312-15.494,38.312c-6.382,0-6.987-1.595-5.829-5.236 1.313-4.125 5.36-10.949 5.36-13.21 0-.946-.47-7.095-.47-7.095 .939-.946 4.695-11.825 3.756-13.244z" fill="#fff"/>
 <path d="m404.144,113.462c1.46,9.193 3.65,19.488 3.65,33.461 0,2.207-8.03,22.063-9.49,23.534-2.92,2.941 2.555,9.192-3.65,12.134s-4.015,17.65-4.015,25.004c0,7.355-7.3,19.121-6.57,20.592 .365,1.103-3.285,9.561-4.38,10.664-.365.367 29.2-8.825 29.2-21.327 0-6.987-21.17-23.534-1.825-23.534 12.41,0 3.65-13.973 3.65-18.753 0-6.251 3.285-8.825 3.285-16.547 0-6.251-.73-13.973-.73-22.063 0-6.986-7.3-12.869-9.125-23.165z" fill="#fff"/>
 <path d="m334.79 46.171c11.315 0 22.995 2.2055 29.2 8.4571 1.46 1.4703 3.285 3.6776 4.38 4.7794 4.015 4.0461 0 3.6776 0 8.458 0 2.574-2.19 6.2511 1.825 6.2511 3.285 0 4.745-1.1032 6.935-3.3094 5.84-5.8832-2.92-11.766-2.92-16.179 0-6.2516-22.63-13.238-27.74-15.812-3.65-1.837-9.855-2.574-12.41 0-1.825 1.8388-2.19 6.9868 0.73 7.3552z" fill="#fff"/>
 <path d="m339.54 52.79c27.01 0-1.46 50.008-1.46 59.936 0 3.677-2.92 20.224-2.92 26.475 0 11.032 1.095 15.444-3.65 25.005-1.825 4.044-0.73 17.282-0.73 21.694 0 3.31-6.205-5.515-6.205-12.869 0-9.929 5.84-25.372 3.285-30.52-4.745-9.561 0.73-13.605 0.73-23.534 0-6.251 16.06-31.99 11.315-36.77-2.19-2.2064 5.84-14.341 1.095-16.547-3.285-1.4705-5.475-12.87-1.46-12.87z" fill="#fff"/>
 <path d="m459.531,199.009c0,10.878 3.757,16.081-9.859,16.081-.469,0-16.902-8.514-17.371-8.987-1.878-1.892 10.798-30.271 10.798-38.312 0-3.311 3.757-16.081 4.225-16.554 6.105-6.149 6.574-23.65 6.574-31.691 0-3.783 8.92-4.256 12.677-4.256 11.738,0 13.615-9.933 24.414-9.933 2.347,0 18.779-15.609 18.779-1.892 0,6.622-28.168,16.555-34.273,19.392-13.615,6.622-5.634,15.136-15.024,24.596-4.695,4.73 2.347,16.081-6.573,16.081-8.45,0 5.165,9.46-6.103,9.46-.471,0 0,9.933 0,11.352s-1.878,7.095-.471,8.514c4.226,4.257-4.225,11.824 1.879,11.824 9.391,0 1.879-6.148 10.328-5.675z" fill="#fff"/>
 <path d="m558.175,114.197c-5.842,0-13.141,4.413-14.236,8.09-1.46,4.78-6.57,8.089-8.759,12.502-1.825,3.677-4.38,6.986-8.396,8.825-2.19,1.103-9.489-.368-12.774.735-1.095.368-7.665,5.884-7.665,6.251 0,4.045 9.489,3.31 12.044,3.31 7.665,0 10.585-4.045 17.521-4.045 4.744,0 4.744-6.987 6.204-6.987 2.555,0 1.825-5.515 2.92-7.721s9.855-8.09 11.68-9.929c1.825-1.838 2.555-1.47 2.555-5.147 0-1.839-.73-4.781-1.094-5.884z" fill="#fff"/>
 <path d="m562.919,171.192c.73,1.471 5.476,7.354 4.015,8.825-2.555,2.574-13.869-4.78-14.601-5.516-2.554-2.574-5.839-4.78-5.839-9.928s4.016-4.78 4.016-10.296c0-4.412 4.744-16.546 8.395-18.385 5.11-2.574 11.679-5.516 16.789-.368 9.855,9.928-4.014,9.193-10.22,15.444-2.555,2.574-7.299,3.309-7.299,8.457 0,1.471 0,5.884.73,6.619 1.093,1.103 3.284,2.942 4.014,5.148z" fill="#fff"/>
 <path d="m546.494,98.3856c-8.759,0-16.79,3.6774-21.9,8.8254-6.205,6.251-11.679,19.856-23.359,19.856-4.38,0-10.951.735-16.061.735-5.474,0-7.665,20.592-10.22,23.166-12.044,12.134-20.44,22.063-20.44,41.184 0,.735 16.061-20.96 18.98-27.211s12.775-17.65 21.536-11.767c10.22,6.619 2.919-11.031 8.76-13.973 10.95-5.515 23.725.368 23.725-19.121 0-8.825 20.074-7.354 18.979-21.6944z" fill="#fff"/>
 <path d="m408.25 57.379c7.391 8.6882 11.087 17.79 11.087 30.614 0 12.411 0 18.617-4.106 27.305-1.643 3.309 10.677-1.242 11.087-2.483 2.054-4.551 12.732-12.825 16.427-16.548 0.41-0.4136 10.266-15.307 14.783-6.2054 1.232 2.4822 11.91 16.961 13.552 16.134 4.928-2.482 6.16-7.0331 6.16-12.825 0-0.4135-9.034 0.8275-10.266-2.0684-3.285-7.0329-11.499-14.894-19.713-10.756-3.284 1.6547-8.211 11.584-12.319 13.652-4.928 2.4822-8.213-22.34-9.856-26.063-2.463-4.9648-3.695-8.6871-6.981-11.998-3.696-3.7224-9.855 0.4149-9.855 1.2413z" fill="#fff"/>
 <path d="m413.269,200.609h6.935c2.19,0 2.555,0 3.285,1.471 1.095,2.206 9.855,12.87 6.57,16.179-.73.735-4.38,2.574-5.11,2.942-3.65,1.838-6.205,5.515-9.49,6.986-1.825.736-5.84,2.942-3.65-1.471 3.285-6.618 1.46-17.65 1.46-26.107z" fill="#fff"/>
 <path d="m455.61 109.78c-7.299 3.677-10.22 10.663-10.22 19.121 0 5.147-4.744 8.457-4.744 16.914 0 6.987-1.825 11.767-5.476 15.444-2.92 2.942 2.19 29.049-4.015 29.049-10.22 0-4.015-12.134-4.015-19.489 0-6.986 3.285-13.237 3.285-19.488 0-17.283 4.745-41.919 25.185-41.551z" fill="#fff"/>
 <path d="m468.205,78.8923c0,1.655-.822,2.0687-.822,2.896s1.232,2.4824 2.464,2.4824c.41,0 3.697,0 3.697-.4138 0,0 .41-1.2411.41-1.6549 .41-1.241 4.927-1.6548 6.57-1.6548 .822,0 .822-1.2411 1.232-1.6549h1.232c1.232,0 3.697-2.0685 4.107-2.4822s1.642-1.241 2.464-1.241c1.233-.4137 1.233-.8274 1.233-1.6549s1.23-1.241 1.23-1.6548v-2.0684c0-1.655-1.23-1.2412-2.463-1.2412-2.054,0-4.929,1.2412-5.749,2.0685 0,0-4.107,1.2411-4.517,1.2411-.822,0-1.232.4138-1.644.4138-1.642.4137-4.105,2.0684-5.749,2.8959-.821.4137-2.875,0-2.875.8274s0,2.8958-.82,2.8958z" fill="#fff"/>
 <path d="m438.816,279.596c-2.198,0-7.695,0-8.795,1.107-.55.554-2.199,1.107-3.298,1.662s-3.299,3.876-3.848,4.43-1.65,2.769-1.65,3.324v.552c0,2.769 3.299,4.986 5.498,5.538 1.099,0 2.748,1.108 3.848,1.108h2.749c.549.554 2.199,3.878 2.199,3.878 .549.552 3.848-.555 3.848-.555 .55-.553 1.649-3.323 2.748-3.876 .55,0 3.299-1.107 3.299-2.216 0-1.66 2.198-2.769 2.749-3.877v-4.43c0-1.107-6.598-6.093-9.347-6.645z" fill="#fff"/>
 <path d="m481.582,215.762c0-5.184.321-14.579 6.431-14.579 1.287,0 2.251-3.564 3.215-4.536 3.218-3.239 7.397-6.803 10.291-9.719 3.539-3.563 21.546-6.155 8.04-12.958-7.074-3.564-10.612,8.099-14.471,9.395-.964.324-11.255,5.507-12.221,6.479-1.928,1.944-2.894,6.156-4.822,8.099s-8.684,5.832-7.718,9.395c1.285,4.212 3.536,4.536 5.467,6.48 .321.324 5.788,2.268 5.788,1.944z" fill="#fff"/>
 <path d="m474.943,187.833 1.195-4.817c.3-.301.897-1.806.897-1.806 .3-.903 1.495-.602 2.091-1.204 1.793-1.806 1.195-6.02 2.69-7.525l5.08-5.117c.897-.904 2.988-.904 3.585-2.108 .298-.602 2.39-.903 2.39-2.107 0-1.806 1.196-4.214-1.494-4.214-6.873,0-7.171,1.806-10.159,6.321-1.195,1.807-5.08,3.914-5.975,5.72-1.197,2.709-6.275,7.224-6.275,10.234 0,3.311.299,4.214 1.494,6.623 .896,2.107 4.183,0 4.481,0z" fill="#fff"/>
 <path d="m537.03,297.814c6.57,6.239 34.36,13.92 19.707,0-5.053-4.801-14.654-6.241-14.654-14.881 0-7.68 14.15-6.72 20.717-6.72 6.066,0 17.182-.96 17.182,6.241 0,1.44-.506,7.2 1.01,7.2 7.58,0 9.095-.961 9.095-8.16 0-11.521-10.105-13.441-14.654-22.081-6.063-11.52-33.854-4.32-39.919,1.44-5.052,4.8-6.064,9.6-6.064,18.24 0,5.28 3.033,19.2 7.58,18.721z" fill="#fff"/>
 <path d="m497.714,280.435c-4.847,3.829-7.37,6.799-4.907,10.898 .902,1.499 2.585,3.284 3.407,4.996s.787,3.356 2.283,4.57c1.492,1.21 1.087,2.093 2.919,3.242 1.426.894 5.085,3.806 6.82,4.208 3.5.814 2.96-1.706 6.802-1.595 .679.531.808-1.547 2.113.002 .815.023 1.911-2.256 2.784-2.256 2.431,0 6.092-1.336 6.747-2.783 1.288-2.839-1.429-8.024-3.673-14.017-.322-.856-3.432-4.784-3.768-5.668-1.6-4.223.499-5.668-.497-9.951-2.546-10.947-.575-20.494 18.918-20.494 11.667,0 27.93-3.917 37.828,2.494 3.889,2.492 15.909,16.382 20.504,21.013 5.304,5.341 16.969,20.3 6.717-.356-4.595-9.261-17.676-16.384-21.917-24.931-3.537-7.479-26.87-7.836-26.87-10.685 0-9.259 25.808,3.562 27.93,3.918 6.01,1.425 11.312,10.328 20.15,10.328 .173,0-4.011-5.904-9.612-12.212 3.077-.195-3.241-5.084-3.736-5.084-2.021,0-9.601-9.672-2.527-9.672h6.57c3.537,0 0-7.636-2.021-7.636-1.516,0 .504-2.545 1.01-2.545 6.57,0 1.011-8.145-1.516-8.145s-4.547-9.163 1.516-10.181c-3.536,1.527-8.085,3.563-10.106,5.599-4.043,4.073 4.043,12.217 4.043,14.254 0,6.617-4.549,5.599-10.612,5.599-.721,0-3.269,1.152-5.201,2.632-11.91-.802-46.32-1.487-36.745,8.159 1.769,1.781 14.849,4.63 9.192,4.63-25.454,0-33.231,28.848-57.978,28.848-5.506,0-9.155,1.263-13.223,3.312-1.22.615-4.107-.212-5.485.532s-1.246,3.06-2.135,3.907c-1.712,1.628-2.083,2.918-3.088,4.792-.781,1.456-2.346,3.471-2.648,4.977-.195.985.08,8.351.343,9.322 .542,2 1.898,4.292 3.083,6.368 .71,1.245 1.795,1.487 2.75,2.76 .554.739 1.766,1.023 3.347,1.864 2.033,1.081 3.918,3.349 6.562,2.658 .393.342.563-.121 1.092.193 1.332-.785 2.834-2.209 2.589-3.781-.243-1.57-2.237-3.291-2.843-4.669-.488-1.112.251-2.268-.263-3.452-1.535-3.549-2.201-7.344-2.201-10.975 0-3.562 3.636-4.631 3.636-1.426 0,1.277-2.021,3.59-1.548,5.667 .319,1.406.722,2.906 1.212,4.436 .467,1.45.256,2.928.888,4.371 .716,1.637 2.301,3.233 3.248,4.703 2.97,4.617 7.114,8.015 12.697,7.636 .213-.181.197-.005.573-.141 2.021-.605 7.644.198 7.475-1.034-.114-.825-2.711-2.964-3.32-4.045s-.393-2.268-1.239-3.527c-1.101-1.635-3.349-3.549-4.512-5.155-.389-.537.241-.812-.123-1.333-1.873-2.676-3.332-5.122-3.332-6.947 0-2.259 1.626-2.853 2.493-3.729s.973-2.036 2.038-2.941c1.028-.875 1.63-2.642 2.493-3.284 1.438-1.072 2.874-.49 2.874,1.762z" fill="#fff"/>
 <path d="m597.947,136.15c-6.569,0-9.526,4.632-13.139,8.273-3.285,3.309 3.942,9.596.657,12.905-1.314,1.324-5.256,2.647-6.569,4.302l-7.227,7.28c-4.927,5.295 12.482,11.251 12.482,16.546 0,2.978 3.942-.331 3.942-1.655 0-3.971.328-9.266.328-13.567 0-3.64 2.628-5.626 2.628-8.604 0-.993 1.314-4.633 1.314-6.949 0-2.648 0-10.259.986-11.251 .328-.331 4.27-6.619 4.598-7.28z" fill="#fff"/>
 <path d="m562.035,184.625c-6.479,3.264-12.075,8.012-17.967,10.979-6.186,2.968 4.123,6.529 8.248,5.638 .589,0 2.651-.593 2.945-.593 5.597,0-6.663,9.107-7.07,9.199-1.891.428-9.504,2.77-10.309,5.935-.145.574-.445,1.987 0,2.374 3.271,2.837 8.96-.677 12.96-3.561 1.594-1.149 5.891-2.077 8.247-3.264 1.318-.664 4.714-3.858 5.009-4.451 1.767-3.561 8.542-1.781 11.193-4.452 6.479-6.528-11.488-7.121-15.023-7.121-6.186,0 10.604-11.277 1.767-10.683z" fill="#fff"/>
 <path d="m792.284,286.656-1.891.615c-3.942,0-4.519.19-7.186,1.429-1.607.746-4.27,3.971-5.256,4.964-3.284,3.309-4.598,4.964-4.598,11.582 0,8.273 2.628.993 4.927-1.324 1.642-1.654 4.927-1.654 8.212-1.654 2.956,0 5.255,0 6.241-1.986 .328-.992 3.613-1.654 3.613-3.64s.985-5.625.985-7.28c0-2.316-2.748-5.023-5.047-2.706z" fill="#fff"/>
 <path d="m808.171,296.642c-4.927.662-8.212,5.626-11.168,6.949-8.54,4.302-6.569,8.935.329,15.884 4.927,4.964 4.598,23.826-.986,28.128-5.584,3.971-11.497,8.273-15.767,12.575-5.584,5.625-10.182,8.272 1.643,8.272 5.584,0 7.555-6.287 10.839-9.596 1.643-1.655 6.898-4.302 8.541-4.964 .985-.331 7.883-7.28 7.883-7.611 .329-.662 2.299-2.647 2.299-2.647 .329-.331-4.598-4.633-.328-4.633 5.913,0 4.927-8.935-1.971-8.935-.328,0 4.599-7.941 5.256-8.603 2.299-2.317-5.584-.993-6.241-.993-.986,0-3.942-3.971-4.27-4.302-.657-.662-3.614-.662-3.614-1.324 0-1.323 6.57-8.934 7.227-10.92 0-.331 2.628-6.949.328-7.28z" fill="#fff"/>
 <path d="m707.708,250.745c-6.275,3.01-15.837,10.535-15.837,17.76 0,2.408-.3,5.419-2.689,5.419-1.494,0-4.782,2.107-6.574.3-1.495-1.506-5.678-4.816-5.678-7.525 0-.903 5.08-8.429 5.678-9.031 3.585-3.612 11.055-5.719 15.538-8.729 2.092-1.505 3.883-2.107 6.872-2.107 2.091,0 4.481,3.01 2.69,3.913z" fill="#fff"/>
 <path d="m674.54,267.301c-8.964,0-8.964-.903-13.744-5.72-2.69-2.709 5.08-8.428 6.275-9.03s5.378-6.622 5.976-7.827 6.872-6.02 8.067-6.321c3.586-1.204 14.044-5.719 16.136-1.505 4.481,9.031-12.252,13.245-15.836,16.857-2.392,2.408-5.679-.903-5.679,4.816 0,1.806.299,3.311.299,5.117s-1.792,2.108-1.494,3.613z" fill="#fff"/>
 <path d="m654.82,258.571c-2.408-.559-5.215-2.015-7.598-3.873l-.17-.04c-5.679-1.204-19.423-17.158-15.837-24.382 3.585-7.526 16.433-14.449 25.1-14.449 3.883,0 20.615,1.505 14.641,7.525-1.794,1.807-9.862,4.215-12.85,4.215-4.78,0-15.238,6.622-12.549,12.341 .326.656.651,1.282.973,1.886l.221-.08c2.392-.602 7.472-4.515 10.458-6.321 5.977-3.913 14.942-6.622 22.113-6.622 8.066,0-.598,4.214-2.092,6.02l-6.574,6.321c-1.195,1.505-2.39,3.311-4.482,3.311-2.988,0-10.16,2.108-11.056,3.914-.597,1.204.598,9.933-.298,10.234z" fill="#fff"/>
 <path d="m623.843,219.552-3.284.414c5.749,0 9.034-7.033 11.908-9.929 .822-.827-.41-4.551 2.053-4.551 8.624,0 8.213-24.822-.821-15.721-2.874,2.896-11.908,16.962-12.73,16.135-2.465-2.482-1.643-23.581-1.643-28.132 0-7.447-2.059-14.468-7.391-16.962-6.167-2.884-9.835,9.525-11.088,12.411-1.622,3.733-3.697,11.17-3.697,15.721 0,3.31-.82,10.343 0,13.652 1.644,6.62 6.161-1.654 6.571-3.723 1.232-6.206-2.052-16.135 0-22.34 2.875-9.515 7.802,1.655 7.802,6.205 0,9.516 1.644,19.445-1.231,28.96-1.196,3.958 6.57-7.033 6.57,2.896 0,.413 6.159,4.964 6.981,4.964z" fill="#fff"/>
 <path d="m606.514,237.445c0,7.715-.295,16.914 5.007,22.256 1.472,1.483 5.302,3.857 7.658,4.451 2.063.297 5.302.297 7.66.297 4.417,0-.295-7.419-.884-8.606-.885-1.78-5.892-3.858-6.776-5.638-.588-1.187-3.533-3.858-4.417-5.341-1.179-1.781-4.42-5.045-4.42-7.716 0-.296-1.177-2.967-1.177-2.967-.884.89-2.356,1.78-2.651,3.264z" fill="#fff"/>
 <path d="m408.518,294.043c-11.5,1.655-20.262-4.414-20.262-13.24 0-16.551 12.048-13.793 12.048-18.758 0-15.999 10.405-30.343 25.738-30.343 4.929,0 3.834-9.931 16.43-9.931 7.118,0 20.262,1.104 23.547-2.206 7.12-7.172 25.738,0 36.692,0 3.284,0 10.404,4.413 10.404,9.378 0,8.276-20.262,14.896-24.642,10.483-1.645-1.656-3.834-7.172-6.572-9.931-11.5-11.585-.548,3.31-14.24,3.31-2.737,0-21.356-3.862-24.094-1.103-3.833,3.862 3.834,11.034-8.762,11.034-9.31,0-11.501,6.068-12.048,6.068-17.524,0 1.095,14.344 6.024,14.344 9.309,0 6.024,1.655 6.024,7.724 0,11.586-26.287-10.482-26.287,1.103 0,3.863-6.571,2.759-6.571,11.586 0,2.206 3.286,3.862 5.476,4.966 1.643.551 3.834,6.067 1.095,5.516z" fill="#fff"/>
 <path d="m723.863,254.348c-1.41,0-4.696,1.892-5.165,2.365-.939.946-3.286,1.892-4.694,3.311-.471.473-1.41,1.892-1.41,1.892-.939.473-2.816,2.838-2.816,3.784 0,.473-1.879,1.892-2.347,2.365s-1.41,1.892-1.41,2.838c0,2.838-.469,4.729-.469,7.094 0,1.42 3.755,3.311 5.165,3.311h3.755c2.348,0 1.408-2.365 1.408-3.784v-2.364c0-.947 2.818-2.365 3.287-2.838 .939-.946-.939-1.892 1.878-1.892 1.879,0 2.348-.473 3.287-1.419l1.878-2.365c0-.473.469-1.892.469-2.365l.939-.946c1.408-.473 1.408-1.892 2.348-2.838 .47-.473.47-1.892.47-2.838 0-.473-1.878-2.838-2.818-2.838s-1.408-.473-1.878-.946c0,0-2.816,0-1.877.473z" fill="#fff"/>
 <path d="m745.887,265.201c-2.047.413-4.096,1.65-4.915,3.713-1.228,2.475-4.094,5.362-5.323,7.838 0,.413-.41.824-.41,1.651 0,.824-1.227.411-1.227.411-1.228,1.238-1.228,4.538-1.228,7.014 0,.824 0,2.475.408,2.887 0,0-.408.824.41.824 .41,0 4.505,1.651 5.733,1.238 .409,0 .409-.825.409-1.238 0-1.236 1.228-1.649 1.638-2.062v-2.474c0-.413.819-3.3 1.229-3.713v-.825c1.229-.413.819,0 1.637-.825 .819-.826.819-2.475 2.047-2.475 3.686,0 1.639-1.651 2.868-2.063s2.866,0 2.866-1.651c0-1.237 3.686-1.237 3.686-1.649v-3.713c0-.825-2.868-2.888-3.276-2.888h-6.552z" fill="#fff"/>
 <path d="m773.161,273.741-.518.87c-3.285,0-.892.076-2.768,1.967-1.41,1.419-3.757,2.365-5.165,3.785-.94.945-2.818,2.365-3.757,3.311 0,0-1.409.472-1.409.944 0,0-.468.947-.939,1.421-1.408,1.418-3.286,3.783-3.286,6.622 0,1.89 0,4.729 1.878,4.729h6.573c1.408,0 1.408-3.783 1.879-4.257 .937-.946 1.408-3.783 1.877-4.257l1.409-2.365h4.226c2.816,0 .938-.472.469-.946s2.347-1.891 2.347-1.891c.471-.474 1.408,0 1.408-1.42 0-.472 2.349-1.891 2.818-2.365l.469-2.837c1.878-4.257-5.164-3.311-7.511-3.311z" fill="#fff"/>
 <path d="m441.556,261.02c1.727,0 3.888-.475 5.616-.475 .431,0 8.64,2.852 9.502.951s3.889,0 4.32,1.426c0,.475 1.296,2.852 1.296,3.328 0,1.426 1.297,5.704-1.296,5.704-.431,0-3.886.952-3.886,1.426 0,.952-2.161,2.853-3.457,2.853h-1.728c-1.296,0-4.32-4.279-5.184-4.279-1.728,0-3.887-.475-4.32-.95-.432-.476-3.024-.951-3.887-.951-.433,0-.433-2.377-.433-2.853 0-.475 1.729-3.327 1.729-3.327s.432-1.426.432-1.902c0-.475 1.727-.475 1.296-.951z" fill="#fff"/>
 <path d="m32.2101,212.083c-1.6406,3.308 1.0955,5.238-.2734,7.996 0,0-1.6406,2.205-1.0938,2.757 1.3672,1.378-.8221,2.481-2.1892,3.86-1.6424,1.654 2.4627,3.86 3.0095,4.135 .2735,0 2.1893-.275 2.1893.276 0,3.309 4.1068-2.481 4.1068-4.687 0-1.103 2.1892-1.103 2.1892-3.033 0-1.654.2735-4.136.2735-6.066 0-1.654-1.9158-5.514-2.4627-6.617-1.3689-2.757-5.7492-.276-5.7492,1.379z" fill="#fff"/>
 <path d="m521.079,93.4559c-1.169.3753-4.089,1.3133-4.558,1.8671-.235.2769-1.053.7414-1.58,1.1122s-1.346,1.8446-1.581,2.1214-.587,1.1971-.529,1.3802l.059.1832c.289.915 2.272,1.085 3.499.893 .585-.188 1.577-.103 2.161-.291l1.461-.469c.35.09 1.574.907 1.574.907 .351.089 1.988-.84 1.988-.84 .234-.277.527-1.38 1.055-1.7506 .291-.0939 1.637-.9291 1.521-1.2954-.174-.5493.879-1.2908 1.055-1.7506l-.463-1.465c-.116-.3661-4.143-.8884-5.662-.6024v-.0001z" fill="#fff"/>
 <path d="m350.77,180.945c-1.672,1.248-3.408,2.154-2.44,4.092 .097.115-2.46,7.282-4.259,7.846-.851.339-4.497,9.439-4.473,10.805 .025,1.367-.753.453-.695,1.592 .029.57.443,2.393.049,2.734-.132.113.802,2.28.637,2.621-.297.455-1.692-.916-1.313,1.135 .569,3.076-1.637,17.077-6.014,11.94-.389-.457-4.366-1.38-2.305-2.171 5.597-2.261-1.255-3.079 2.276-3.751 2.124-.45 1.521-3.298 2.148-4.435 .793-1.478-.992-3.306-1.77-4.219-.194-.229.88-5.122 1.084-6.488 .306-2.049-.272-3.531 1.434-5.007 .657-.567 2.883-7.052 2.786-7.166-.355-.684.554-5.237 1.434-5.007 1.989.462 5.295-1.009 6.083-1.69 1.444-1.248 5.829-3.057 5.338-2.831z" fill="#fff"/>
 <path d="m317.157,41.9768c.199,1.1698.273,2.3665.599,3.5112 .235.8282.865,1.5365 1.082,2.3683 .277,1.0661.174,2.1983.396,3.2769 .157.762.689,1.4525.748,2.227 .141,1.8459.114,3.606.043,5.4574-.042,1.1054-.579,2.1626-.668,3.2662-.273,3.3825-.831,6.5775.542,9.8612 .706,1.6907 1.652,2.4515 2.331,4.1747 1.916.9723 1.283,1.3252 2.434,2.7997 .334.4275 1.129.4801 1.351.9673 .687,1.5108 1.368,2.8831 1.538,4.5145 .341,3.2734-3.147,11.909-1.152,14.0614 1.084-2.33 1.474-3.554 3.409-5.3163 .064-1.0373-.04-2.0981.194-3.1118 .198-.8586 1.101-1.556 1.093-2.4355-.039-4.1663-.29-7.3198-2.844-10.7883-1.075-1.4596-2.809-2.0722-3.615-3.6668-.782-1.5471-1.067-2.8523-1.363-4.5495-.154-.8841.552-1.7352.608-2.628 .079-1.2782-.366-2.5679-.197-3.8396 .142-1.0715 1.087-1.9909 1.111-3.0695 .052-2.3074.256-4.5058-.507-6.6969-.698-2.0016-2.463-3.4272-3.892-5.0353 .375-1.1161.043-1.3415-.514-2.4577l.504-1.0374c-.661-1.6117-.38-3.5954-1.731-4.4021-.218.1968-2.056,2.6955-1.5,2.5489z" fill="#fff"/>
 <path d="m507.464,207.874 1.26-4.007c.245-.271.807-1.544.807-1.544 .291-.758 1.154-.622 1.645-1.163 1.471-1.624 1.355-4.983 2.58-6.337 1.472-1.624 2.452-2.706 4.167-4.601 .736-.812 2.287-1.001 2.824-2.03 .269-.514 1.844-.947 1.938-1.922 .141-1.462 1.215-3.52-.781-3.277-5.097.619-5.46,2.109-8.027,6.034-1.028,1.571-4.073,3.627-4.879,5.171-1.097,2.301-5.218,6.416-5.453,8.853-.257,2.682-.106,3.386.593,5.228 .501,1.625 3.104-.377 3.326-.405z" fill="#fff"/>
 <path d="m527.728,204.793-.192-2.324c.13-.14.212-.861.212-.861 .01-.434.822-.258 1.081-.538 .774-.839-.428-2.912.218-3.612l2.197-2.378c.388-.419 1.706-.369 1.846-.943 .071-.287 1.328-.384 1.092-.972-.353-.883-.073-2.03-1.767-2.095-4.328-.164-4.163.711-5.159,2.845-.4.854-2.433,1.79-2.644,2.651-.222,1.294-2.537,3.378-1.948,4.849 .65,1.617 1.016,2.066 2.239,3.271 .978,1.05 2.637.1 2.825.107z" fill="#fff"/>
 <path d="m333.201,241.638c-.167,3.695-3.49,4.038-3.628,7.117 0,0 .367,2.732-.378,2.945-1.862.532-.483,2.57.045,4.446 .634,2.25-4.018,2.161-4.629,2.134-.239-.135-1.779-1.316-2.045-.834-1.6,2.889-2.385-4.182-1.318-6.108 .533-.964-1.379-2.038-.446-3.724 .8-1.444 1.761-3.746 2.695-5.431 .8-1.445 4.34-3.876 5.351-4.57 2.529-1.736 5.153,2.58 4.353,4.025z" fill="#fff"/>
 <path d="m355.293,83.8929c.143-.4479.34-.9361.34-.9361 .311-.6573-.379-1.473-.352-2.2287 .08-2.2677 2.429-3.7411 2.497-5.6312 .08-2.271.134-3.7812.227-6.4273 .04-1.1342-.906-2.8052-.582-3.8419 .16-.5152-.635-2.3272-.042-2.8852 .891-.8354 1.539-2.9049 2.755-.7549 3.107,5.4925 2.351,6.5669 1.474,11.0445-.349,1.7912.368,5.8702-.118,7.4226-.797,2.211-.726,8.3574-2.211,9.749-1.093,1.0257-1.715,1.4448-2.524,1.6578-.006.4764-.027.9627-.066,1.4162-.071.8433 2.091,3.9886 1.984,5.2538-.036.4218-.107,1.2652-.143,1.687-.107,1.2655-1.358,3.2875-1.895,3.2445-.268-.022-1.09,3.309-1.126,3.731-.214,2.529-2.519,1.071-3.324,1.006-.268-.021-1.501-1.394-1.769-1.415-.769-.487-1.591-3.525-.447-4.282s.214-8.8982.25-9.3201c.143-1.6868.59-3.7733.733-5.4599 .232.4431.375-1.2439.643-1.2224s1.109-.3352 1.109-.3352 1.751-1.5576 2.019-1.536c.094.0073.317.0254.568.0635z" fill="#fff"/>
 <path d="m459.604,77.5034c-3.088-8.1975-7.851-16.0528-14.012-18.8289-1.449-.6547-3.525-1.3702-4.612-1.8603-3.987-1.7959-2.627,1.0106-6.045,2.3254-1.839.7083-3.87,3.3055-4.965.3971-.897-2.3808-.507-3.7421.473-5.935 2.611-5.8473 9.206-1.1198 12.359-2.3325 4.469-1.7172 15.637,12.7554 18.871,15.7506 2.31,2.1389 4.529,6.432 3.386,8.9908-.815,1.8275-4.395,3.507-5.455,1.4928z" fill="#fff"/>
</svg>
